<svg xmlns="http://www.w3.org/2000/svg" width="61.995" height="61.994" viewBox="0 0 61.995 61.994"><defs><style>.a{fill:#ececf1;}.b{fill:#cfdde2;}.c{fill:#ffe470;}.d{fill:#704c55;}.e{fill:#4b2746;}.f{fill:#ffc473;}</style></defs><g transform="translate(0 -0.004)"><path class="a" d="M49.875,71.18c-6.046,0-12.1,2.842-15.016,8.267-2.917-5.425-8.97-8.267-15.016-8.267A22.161,22.161,0,0,0,4.394,77.624l2.568,2.568,27.9,8.541,27.9-8.541,2.568-2.568A22.161,22.161,0,0,0,49.875,71.18Z" transform="translate(-3.862 -62.558)"/><path class="b" d="M286.465,77.624a22.161,22.161,0,0,0-15.449-6.444c-6.046,0-12.1,2.842-15.016,8.267v9.286l27.9-8.541Z" transform="translate(-225.003 -62.558)"/><path class="c" d="M242.816,0A1.815,1.815,0,0,0,241,1.82V5.453a1.816,1.816,0,1,0,3.633,0V1.82A1.815,1.815,0,0,0,242.816,0Z" transform="translate(-211.819 0)"/><path class="d" d="M60.179,120a64.167,64.167,0,0,0-28.459,6.69l-.722.36-.722-.36A64.165,64.165,0,0,0,1.816,120,1.815,1.815,0,0,0,0,121.82v36.567A1.815,1.815,0,0,0,1.816,160.2a60.537,60.537,0,0,1,26.835,6.307l1.534.766a1.826,1.826,0,0,0,1.625,0l1.534-.766A60.537,60.537,0,0,1,60.179,160.2a1.815,1.815,0,0,0,1.816-1.816V121.82A1.815,1.815,0,0,0,60.179,120Z" transform="translate(0 -105.47)"/><path class="e" d="M256.812,167.277l1.534-.766a60.537,60.537,0,0,1,26.835-6.307A1.815,1.815,0,0,0,287,158.388V121.82A1.815,1.815,0,0,0,285.181,120a64.167,64.167,0,0,0-28.459,6.69l-.722.36v40.413A1.824,1.824,0,0,0,256.812,167.277Z" transform="translate(-225.003 -105.47)"/><path class="c" d="M155.165,6.737,151.533,3.1A1.816,1.816,0,0,1,154.1.536l3.633,3.633a1.816,1.816,0,0,1-2.568,2.568Z" transform="translate(-132.717)"/><path class="f" d="M257.816,5.453V1.82A1.815,1.815,0,0,0,256,0V7.269A1.815,1.815,0,0,0,257.816,5.453Z" transform="translate(-225.003 0)"/><path class="f" d="M301.533,6.737a1.816,1.816,0,0,1,0-2.568L305.165.536A1.816,1.816,0,0,1,307.734,3.1L304.1,6.737A1.816,1.816,0,0,1,301.533,6.737Z" transform="translate(-264.554 0)"/><path class="c" d="M317.126,215.08c-1.758.209-3.5.519-5.234.874V212.82a1.816,1.816,0,1,0-3.633,0v3.989a63.375,63.375,0,0,0-6.091,1.932,1.816,1.816,0,1,0,1.284,3.4c1.577-.6,3.186-1.1,4.807-1.562v10.405a1.816,1.816,0,1,0,3.633,0V219.667c1.873-.408,3.759-.753,5.663-.979a1.817,1.817,0,0,0-.429-3.608Z" transform="translate(-264.549 -185.452)"/><path class="f" d="M377.815,230.983V219.667c1.873-.408,3.759-.753,5.663-.979a1.817,1.817,0,1,0-.429-3.608c-1.758.209-3.5.519-5.234.874V212.82A1.815,1.815,0,0,0,376,211v21.8a1.815,1.815,0,0,0,1.816-1.816Z" transform="translate(-330.472 -185.452)"/></g></svg>