<svg xmlns="http://www.w3.org/2000/svg" width="52.194" height="58" viewBox="0 0 52.194 58"><defs><style>.a{fill:#fff;}</style></defs><g transform="translate(-25.627)"><path class="a" d="M67.019,28.485h4.046a1.661,1.661,0,0,0,1.659-1.659V22.781a1.661,1.661,0,0,0-1.659-1.659H67.019a1.661,1.661,0,0,0-1.659,1.659v4.046A1.661,1.661,0,0,0,67.019,28.485Zm.04-5.664h3.965v3.965H67.059Zm-.04,16.426h4.046a1.661,1.661,0,0,0,1.659-1.659V33.542a1.661,1.661,0,0,0-1.659-1.659H67.019a1.661,1.661,0,0,0-1.659,1.659v4.046A1.661,1.661,0,0,0,67.019,39.247Zm.04-5.664h3.965v3.965H67.059Zm-11.586-5.1h4.046a1.661,1.661,0,0,0,1.659-1.659V22.781a1.661,1.661,0,0,0-1.659-1.659H55.474a1.661,1.661,0,0,0-1.659,1.659v4.046A1.661,1.661,0,0,0,55.474,28.485Zm.04-5.664h3.965v3.965H55.514ZM36.429,42.141H32.383A1.661,1.661,0,0,0,30.725,43.8v4.046A1.661,1.661,0,0,0,32.383,49.5h4.046a1.661,1.661,0,0,0,1.659-1.659V43.8A1.661,1.661,0,0,0,36.429,42.141Zm-.04,5.664H32.424V43.84h3.965Zm.04-26.683H32.383a1.661,1.661,0,0,0-1.659,1.659v4.046a1.661,1.661,0,0,0,1.659,1.659h4.046a1.661,1.661,0,0,0,1.659-1.659V22.781A1.661,1.661,0,0,0,36.429,21.122Zm-.04,5.664H32.424V22.821h3.965ZM55.474,38.994h4.046a1.661,1.661,0,0,0,1.659-1.659V33.29a1.661,1.661,0,0,0-1.659-1.659H55.474a1.661,1.661,0,0,0-1.659,1.659v4.046A1.661,1.661,0,0,0,55.474,38.994Zm.04-5.664h3.965V37.3H55.514ZM73.567,3.883H69.935v-1.3A2.587,2.587,0,0,0,67.351,0h-.39a2.586,2.586,0,0,0-2.583,2.584v1.3H39.07v-1.3A2.587,2.587,0,0,0,36.487,0H36.1a2.587,2.587,0,0,0-2.584,2.584v1.3H29.881a4.259,4.259,0,0,0-4.254,4.254V53.752A4.253,4.253,0,0,0,29.875,58h43.7a4.253,4.253,0,0,0,4.248-4.248V8.136a4.259,4.259,0,0,0-4.254-4.254Zm-7.49-1.3a.885.885,0,0,1,.884-.884h.39a.885.885,0,0,1,.884.884v1.3H66.077Zm-30.864,0A.885.885,0,0,1,36.1,1.7h.39a.885.885,0,0,1,.884.884v1.3H35.213v-1.3ZM76.122,53.752A2.552,2.552,0,0,1,73.573,56.3h-43.7a2.552,2.552,0,0,1-2.549-2.549v-.005a4.232,4.232,0,0,0,2.555.855H64.328a4.226,4.226,0,0,0,3.008-1.246l8.786-8.786Zm-9.653-1.932a3.634,3.634,0,0,0,.1-.857V45.291a1.942,1.942,0,0,1,1.94-1.939h5.671a3.634,3.634,0,0,0,.857-.1Zm9.653-35.8H39.92a.85.85,0,1,0,0,1.7h36.2v21.99a1.942,1.942,0,0,1-1.94,1.94H68.511a3.643,3.643,0,0,0-3.639,3.639v5.671a1.942,1.942,0,0,1-1.939,1.94H29.881a2.557,2.557,0,0,1-2.554-2.555V17.723h9.2a.85.85,0,1,0,0-1.7h-9.2V8.136a2.557,2.557,0,0,1,2.554-2.554h3.632v2.5A2.587,2.587,0,0,0,36.1,10.663a.85.85,0,1,0,0-1.7.885.885,0,0,1-.884-.884v-2.5H64.377v2.5a2.587,2.587,0,0,0,2.584,2.584.85.85,0,1,0,0-1.7.885.885,0,0,1-.884-.884v-2.5h7.491a2.557,2.557,0,0,1,2.554,2.554ZM36.429,31.631H32.383a1.661,1.661,0,0,0-1.659,1.659v4.046a1.661,1.661,0,0,0,1.659,1.659h4.046a1.661,1.661,0,0,0,1.659-1.659V33.29A1.661,1.661,0,0,0,36.429,31.631Zm-.04,5.664H32.424V33.33h3.965Zm7.54-8.81h4.046a1.661,1.661,0,0,0,1.659-1.659V22.781a1.661,1.661,0,0,0-1.659-1.659H43.928a1.661,1.661,0,0,0-1.659,1.659v4.046A1.661,1.661,0,0,0,43.928,28.485Zm.04-5.664h3.965v3.965H43.969ZM55.513,47.8a.85.85,0,0,0-1.7.04A1.661,1.661,0,0,0,55.474,49.5h4.046a1.661,1.661,0,0,0,1.659-1.659V43.8a1.661,1.661,0,0,0-1.659-1.659H55.474A1.661,1.661,0,0,0,53.815,43.8v1.167a.85.85,0,0,0,1.7,0V43.84h3.965V47.8Zm-11.585-8.81h4.046a1.661,1.661,0,0,0,1.659-1.659V33.29a1.661,1.661,0,0,0-1.659-1.659H43.928A1.661,1.661,0,0,0,42.27,33.29v4.046A1.661,1.661,0,0,0,43.928,38.994Zm.04-5.664h3.965V37.3H43.969ZM43.928,49.5h4.046a1.661,1.661,0,0,0,1.659-1.659V43.8a1.661,1.661,0,0,0-1.659-1.659H43.928A1.661,1.661,0,0,0,42.27,43.8v4.046A1.661,1.661,0,0,0,43.928,49.5Zm.04-5.664h3.965V47.8H43.969Z"/></g></svg>