<svg xmlns="http://www.w3.org/2000/svg" width="97.585" height="90.611" viewBox="0 0 97.585 90.611"><defs><style>.a{fill:#aec9d6;}.b{fill:#8fb2bc;}.c{fill:#55d7ff;}.d{fill:#57bbff;}.e{fill:#466175;}.f{fill:#2d4859;}.g{fill:#d9f9f8;}.h{fill:#c1eaf4;}.i{fill:#fff683;}.j{fill:#ffc7b6;}.k{fill:#ffdecc;}.l{fill:#ffe45c;}</style></defs><g transform="translate(0 -16.097)"><g transform="translate(0 16.097)"><g transform="translate(0 6.556)"><path class="a" d="M215.852,427.068H191.12l1.94-5.964,1.849-5.678h17.154Z" transform="translate(-154.694 -345.872)"/><path class="b" d="M215.852,427.069H191.12l1.94-5.964h12.116a3.261,3.261,0,0,0,3.131-4.18l-.438-1.5h4.193Z" transform="translate(-154.694 -345.873)"/><path class="c" d="M97.585,93.978v48.238l-5.23.408-43.562,3.4L0,142.216V93.978l48.792-3.812,43.562,3.4Z" transform="translate(0 -82.605)"/><path class="d" d="M489.79,108.435v48.238l-5.23.408V108.027Z" transform="translate(-392.205 -97.062)"/><path class="e" d="M97.585,363.257v8.933a2.439,2.439,0,0,1-2.44,2.44H2.44A2.439,2.439,0,0,1,0,372.19v-8.933Z" transform="translate(0 -303.647)"/><path class="e" d="M97.585,52.937V61.87H0V52.937A2.439,2.439,0,0,1,2.44,50.5H95.145a2.439,2.439,0,0,1,2.44,2.44Z" transform="translate(0 -50.497)"/><g transform="translate(0)"><path class="f" d="M489.79,52.937V61.87h-5.23V50.5h2.79A2.439,2.439,0,0,1,489.79,52.937Z" transform="translate(-392.205 -50.497)"/><path class="f" d="M92.355,363.257h5.23v8.933a2.439,2.439,0,0,1-2.44,2.44H2.44A2.439,2.439,0,0,1,0,372.19v-3.248H88.417A3.938,3.938,0,0,0,92.355,365Z" transform="translate(0 -303.647)"/></g><path class="e" d="M191.025,465.051a2.184,2.184,0,0,1-2.184,2.182H153.184A2.186,2.186,0,0,1,151,465.051a3.537,3.537,0,0,1,3.534-3.534h32.958a3.533,3.533,0,0,1,3.534,3.534Z" transform="translate(-122.22 -383.179)"/><path class="f" d="M189.99,462.552a3.528,3.528,0,0,1,1.035,2.5,2.184,2.184,0,0,1-2.184,2.182H153.184A2.186,2.186,0,0,1,151,465.051a3.525,3.525,0,0,1,.071-.7h33.482a2.184,2.184,0,0,0,2.184-2.182,3.5,3.5,0,0,0-.061-.652h.816A3.517,3.517,0,0,1,189.99,462.552Z" transform="translate(-122.22 -383.179)"/></g><path class="a" d="M194.119,26.211a5.72,5.72,0,0,1-5.718,5.718H161.718a5.718,5.718,0,0,1,0-11.436H188.4A5.718,5.718,0,0,1,194.119,26.211Z" transform="translate(-126.267 -19.655)"/><path class="b" d="M194.119,26.211a5.72,5.72,0,0,1-5.718,5.718H161.718A5.717,5.717,0,0,1,156,26.211h26.683a5.72,5.72,0,0,0,5.718-5.718A5.718,5.718,0,0,1,194.119,26.211Z" transform="translate(-126.267 -19.655)"/><circle class="g" cx="5.718" cy="5.718" r="5.718" transform="matrix(0.16, -0.987, 0.987, 0.16, 42.224, 11.287)"/><path class="h" d="M226,50.493h11.436a5.718,5.718,0,1,1-11.436,0Z" transform="translate(-182.926 -43.937)"/></g><g transform="translate(23.636 40.7)"><path class="i" d="M174.228,321.594H124.01a9.1,9.1,0,0,1,6.89-7l13.811-2.809,9.034.053,13.591,2.758c.04.01.082.019.122.03A9.084,9.084,0,0,1,174.228,321.594Z" transform="translate(-124.01 -280.031)"/><path class="j" d="M241.445,284.243a16.517,16.517,0,0,0,.2,5.217l.016.083q-.389.438-.81.884a4.825,4.825,0,0,1-7.37,0q-.445-.471-.854-.934a16.335,16.335,0,0,0,.23-5.25Z" transform="translate(-211.922 -257.737)"/><path class="k" d="M221.626,164.8c0,2.558-2.173,5.611-6.461,9.082a6.763,6.763,0,0,1-8.518,0c-4.285-3.467-6.457-6.522-6.457-9.078,0-.271.01-.543.032-.8.082-.842.118-4.382.1-8.205a10.574,10.574,0,0,1,9.181-10.517,10.315,10.315,0,0,1,1.4-.093,10.577,10.577,0,0,1,10.58,10.61c-.011,3.82.023,7.357.1,8.2C221.617,164.261,221.626,164.533,221.626,164.8Z" transform="translate(-185.67 -145.184)"/><path class="j" d="M261.2,164.8c0,2.558-2.173,5.611-6.461,9.082,2.485-3.328,3.663-7.138,3.663-9.082,0-.271-.011-.543-.034-.81-.082-.842-.116-4.38-.1-8.2a10.574,10.574,0,0,0-9.181-10.517,10.315,10.315,0,0,1,1.4-.093,10.577,10.577,0,0,1,10.58,10.61c-.011,3.82.023,7.357.1,8.2C261.189,164.261,261.2,164.533,261.2,164.8Z" transform="translate(-225.242 -145.184)"/></g><path class="l" d="M174.228,333.662H124.01a8.991,8.991,0,0,1,1.033-2.691h38.946c2.773,0,3.688-1.744,3.469-4.277A9.084,9.084,0,0,1,174.228,333.662Z" transform="translate(-100.374 -251.399)"/></g></svg>