<svg xmlns="http://www.w3.org/2000/svg" width="21.345" height="32.785" viewBox="0 0 21.345 32.785"><g transform="translate(-89.326 0)"><g transform="translate(96.064 16.998)"><path d="M197.048,265.452h-1.934a.566.566,0,0,0,0,1.131h1.934a.566.566,0,1,0,0-1.131Z" transform="translate(-194.549 -265.452)"/></g><g transform="translate(89.326 0)"><g transform="translate(0)"><path d="M110.106,1.642h-8.344V.565a.566.566,0,0,0-.711-.546l-11.3,3.015a.566.566,0,0,0-.42.547V5.407a.566.566,0,1,0,1.131,0V4.015L100.631,1.3V31.529L90.457,29.495V7.313a.566.566,0,1,0-1.131,0V29.958a.565.565,0,0,0,.455.555l11.3,2.261a.566.566,0,0,0,.677-.555V31.143h5.213a.566.566,0,1,0,0-1.131h-5.213V28.4h5.6a.566.566,0,0,0,.566-.566V4.953a.566.566,0,0,0-.566-.566h-5.6V2.773h7.778V30.012h-.807a.566.566,0,0,0,0,1.131h1.373a.566.566,0,0,0,.566-.566V2.208A.565.565,0,0,0,110.106,1.642ZM106.8,5.518V27.267h-5.033V5.518Z" transform="translate(-89.326 0)"/></g></g></g></svg>