<svg xmlns="http://www.w3.org/2000/svg" width="21.936" height="35.447" viewBox="0 0 21.936 35.447"><g transform="translate(-97.576)"><path d="M116.444,7.734,119.316,2.4A1.629,1.629,0,0,0,117.881,0H105.865a.519.519,0,0,0-.519.519V3.885h-4.511V2.739a1.629,1.629,0,1,0-3.258,0V34.928a.519.519,0,1,0,1.038,0V19.353H99.8V34.928a.519.519,0,1,0,1.038,0V19.353h3.921a.519.519,0,1,0,0-1.038h-3.921V4.923h8.4v6.7a.519.519,0,0,0,1.038,0V4.4a.518.518,0,0,0-.152-.367l-3-3h10.763a.591.591,0,0,1,.52.871l-3,5.579a.519.519,0,0,0,0,.492l3,5.579a.591.591,0,0,1-.52.871h-4.246a.519.519,0,1,0,0,1.038h4.246a1.629,1.629,0,0,0,1.435-2.4ZM99.205,2.148a.591.591,0,0,1,.591.591V3.885H98.614V2.739A.591.591,0,0,1,99.205,2.148ZM99.8,18.314H98.614V4.923H99.8Zm6.588-16.542L108.5,3.885h-2.112Z" transform="translate(0 0)"/><path d="M192.341,197.96v-1.267a2.184,2.184,0,1,0-1.038,0v1.267a6.069,6.069,0,1,0,1.038,0Zm-1.665-3.388a1.146,1.146,0,1,1,1.146,1.146A1.147,1.147,0,0,1,190.676,194.572Zm1.146,14.465a5.031,5.031,0,1,1,5.031-5.031A5.036,5.036,0,0,1,191.822,209.037Z" transform="translate(-82.072 -179.068)"/><path d="M254.1,320.8a.519.519,0,0,0-.734,0l-3.33,3.33a.519.519,0,1,0,.734.734l3.33-3.33A.519.519,0,0,0,254.1,320.8Z" transform="translate(-141.762 -298.446)"/><path d="M266.433,306.206a.519.519,0,0,0,.519-.519v-.555a.519.519,0,1,0-1.038,0v.555A.519.519,0,0,0,266.433,306.206Z" transform="translate(-156.683 -283.524)"/><path d="M266.433,392.791a.519.519,0,0,0-.519.519v.555a.519.519,0,1,0,1.038,0v-.555A.519.519,0,0,0,266.433,392.791Z" transform="translate(-156.683 -365.597)"/><path d="M306.513,352.709a.519.519,0,1,0,0,1.038h.555a.519.519,0,1,0,0-1.038Z" transform="translate(-193.989 -328.29)"/><path d="M218.891,352.709h-.555a.519.519,0,1,0,0,1.038h.555a.519.519,0,1,0,0-1.038Z" transform="translate(-111.916 -328.29)"/></g></svg>