<svg xmlns="http://www.w3.org/2000/svg" width="49.749" height="52.413" viewBox="0 0 49.749 52.413"><defs><style>.a{fill:#9f6c47;}.b{fill:#fedb41;}.c{fill:#00acea;}.d{fill:#3bb54a;}</style></defs><g transform="translate(-12.112 0)"><g transform="translate(12.112 0)"><path class="a" d="M130.007,267.551a2.931,2.931,0,0,1-.345,4.08l-8.161,6.782a16.034,16.034,0,0,1-10.977,3.736l-11.839-.575a18.39,18.39,0,0,0-3.965.23l-4.942.919h-.345v-14.6h.23l5.115-2.471a16.955,16.955,0,0,1,8.391-1.9l7.816.345h.172a2.873,2.873,0,0,1,2.873,2.529,2.931,2.931,0,0,1-2.356,3.218l-5.8,1.092a1.724,1.724,0,0,0-1.149,2.586l.575,1.092a1.724,1.724,0,0,0,1.552.8l5.632-.172a9.6,9.6,0,0,0,5.8-2.126l7.529-6.092a2.988,2.988,0,0,1,4.2.46Z" transform="translate(-80.928 -234.735)"/><path class="b" d="M212.48,0a13.333,13.333,0,1,1-13.333,13.333h0A13.276,13.276,0,0,1,212.365,0Z" transform="translate(-178.573 0)"/><path class="c" d="M21.192,299.078V301.2a2.3,2.3,0,0,1-2.3,2.3H14.411a2.3,2.3,0,0,1-2.3-2.3V284.423a2.3,2.3,0,0,1,2.3-2.3h4.483a2.3,2.3,0,0,1,2.3,2.3h0v14.655Z" transform="translate(-12.112 -251.09)"/></g><path class="d" d="M258.986,65.86a1.149,1.149,0,0,0-1.467-.7l-.027.01a5.172,5.172,0,0,1-5.517-1.149h4.54a1.149,1.149,0,1,0,0-2.3h-5.862a3.964,3.964,0,0,1-.172-1.149h6.609a1.149,1.149,0,1,0,0-2.3h-6.207a5,5,0,0,1,1.092-1.609,5.057,5.057,0,0,1,5.517-1.207,1.147,1.147,0,1,0,.862-2.126A7.471,7.471,0,0,0,250.365,55a7.7,7.7,0,0,0-1.954,3.276h-1.092a1.149,1.149,0,1,0,0,2.3h.862a3.909,3.909,0,0,0,.115,1.149h-.977a1.149,1.149,0,1,0,0,2.3H249.1a8.161,8.161,0,0,0,1.264,1.609,7.414,7.414,0,0,0,5.287,2.184,7.3,7.3,0,0,0,2.7-.517,1.092,1.092,0,0,0,.645-1.4Z" transform="translate(-208.311 -47.01)"/></g></svg>