<svg xmlns="http://www.w3.org/2000/svg" width="719.929" height="745.242" viewBox="0 0 719.929 745.242"><defs><style>.a{fill:#ddedec;mix-blend-mode:multiply;isolation:isolate;}.b{fill:#b5d3ea;}.c{fill:#9bc2e0;}.d{fill:#eaf5fe;}.e{fill:#fcfdfd;}.f{fill:#f16988;}.g{fill:#7dbecd;}.h{fill:#fecd46;}.i{fill:#02b6d7;}.j{fill:#ec4b75;}.k{fill:#fee0ae;}.l{fill:#53241d;}.m{fill:#8c3923;}.n{fill:#784832;}.o{fill:#e8a798;}.p{fill:#f0baae;}.q{fill:#875645;}.r{fill:#048fb5;}.s{fill:#262424;}.t{fill:#345d94;}.u{fill:#27476d;}.v{fill:#ddedf9;}</style></defs><g transform="translate(-110.283 -34.884)"><path class="a" d="M134.991,174.428c21.539,12.431,56.563,12.372,78.235-.138s21.783-32.734.243-45.172-56.557-12.372-78.228.145S113.458,162,134.991,174.428Z" transform="translate(48.169 474.104)"/><path class="a" d="M170.987,193.011c21.533,12.438,56.563,12.372,78.228-.138s21.783-32.734.25-45.172-56.563-12.366-78.235.145S149.447,180.579,170.987,193.011Z" transform="translate(249.029 577.829)"/><g transform="translate(110.283 34.884)"><g transform="translate(0 3.352)"><path class="b" d="M747.569,575.275,731,582.253,125.091,42.371l16.567-6.978L691.864,353.066Z" transform="translate(-27.64 -35.394)"/><path class="a" d="M731,576.335,180.8,258.663,125.091,36.454,591.717,657.021Z" transform="translate(-27.64 -29.476)"/><path class="c" d="M731,576.335,180.8,258.663,125.091,36.454,675.3,354.126Z" transform="translate(-27.64 -29.476)"/><path class="b" d="M581.077,660l-13.871,7.74L127,35.92,677.2,353.592Z" transform="translate(-17.001 -32.457)"/><path class="d" d="M660.489,664.76,110.283,347.088,207.734,36.454,757.94,354.126Z" transform="translate(-110.283 -29.476)"/><g transform="translate(40.041 24.049)"><path class="e" d="M607.438,599.826,116.368,316.3,203.344,39.048l491.071,283.53Z" transform="translate(-116.368 -39.048)"/></g><g transform="translate(56.319 56.987)"><g transform="translate(348.377 305.054)"><path class="e" d="M172.375,148.281l66.091,38.159,17.923-57.129L190.3,91.152Z" transform="translate(-168.445 -86.25)"/><path class="c" d="M243.708,195.5l-71.93-41.533,19.94-63.559,71.937,41.533Zm-64.066-44.593,60.242,34.787L255.791,135l-60.249-34.787Z" transform="translate(-171.778 -90.407)"/></g><g transform="translate(185.952 76.32)"><path class="e" d="M213.784,151.682l17.923-57.129L165.616,56.4l-17.922,57.129Z" transform="translate(-143.765 -51.492)"/><path class="c" d="M219.027,160.742,147.1,119.209l19.94-63.559,71.93,41.533Zm-64.072-44.593L215.2,150.936l15.906-50.693L170.861,65.456Z" transform="translate(-147.097 -55.65)"/></g><g transform="translate(282.284 266.891)"><path class="e" d="M180.255,85.353l-17.922,57.129,66.09,38.158,17.923-57.129Z" transform="translate(-158.399 -80.447)"/><path class="c" d="M233.672,189.706l-71.937-41.533,19.947-63.566,71.93,41.532ZM169.6,145.113l60.249,34.78,15.9-50.693L185.505,94.42Z" transform="translate(-161.735 -84.608)"/></g><g transform="translate(252.045 114.476)"><path class="e" d="M223.827,157.481l17.923-57.129L175.659,62.193l-17.923,57.129Z" transform="translate(-153.81 -57.289)"/><path class="c" d="M229.07,166.54l-71.93-41.533,19.934-63.559,71.937,41.533ZM165,121.953l60.249,34.78,15.9-50.693L180.9,71.26Z" transform="translate(-157.14 -61.448)"/></g><g transform="translate(318.131 152.639)"><path class="e" d="M233.87,163.279l17.923-57.129L185.7,67.992,167.779,125.12Z" transform="translate(-163.849 -63.091)"/><path class="c" d="M239.112,172.339l-71.93-41.533,19.94-63.559,71.937,41.532ZM175.04,127.746l60.249,34.787,15.906-50.693L190.946,77.053Z" transform="translate(-167.182 -67.247)"/></g><g transform="translate(384.223 190.796)"><path class="e" d="M243.913,169.078l17.922-57.129L195.745,73.79l-17.923,57.129Z" transform="translate(-173.893 -68.887)"/><path class="c" d="M249.155,178.137,177.225,136.6l19.94-63.559,71.93,41.533Zm-64.072-44.593,60.249,34.787,15.906-50.693L200.989,82.851Z" transform="translate(-177.225 -73.045)"/></g><g transform="translate(366.297 247.925)"><path class="e" d="M175.1,139.6l66.091,38.159,17.922-57.129L193.021,82.471Z" transform="translate(-171.165 -77.569)"/><path class="c" d="M246.438,186.818,174.5,145.285l19.94-63.559,71.937,41.533Zm-64.072-44.593,60.249,34.787,15.906-50.693L198.265,91.532Z" transform="translate(-174.501 -81.726)"/></g><g transform="translate(234.118 171.605)"><path class="e" d="M221.1,166.162l17.922-57.129L172.935,70.874,155.013,128Z" transform="translate(-151.083 -65.97)"/><path class="c" d="M226.353,175.227l-71.937-41.533,19.94-63.566,71.93,41.533Zm-64.079-44.593,60.255,34.78,15.9-50.693L178.18,79.935Z" transform="translate(-154.416 -70.129)"/></g><g transform="translate(300.211 209.762)"><path class="f" d="M231.147,171.96l17.922-57.129L182.978,76.673,165.056,133.8Z" transform="translate(-161.127 -71.766)"/><path class="g" d="M236.389,181.025l-71.93-41.533L184.4,75.927l71.93,41.532Zm-64.072-44.593,60.249,34.787,15.906-50.7L188.223,85.733Z" transform="translate(-164.459 -75.927)"/></g><g transform="translate(168.025 133.449)"><path class="e" d="M211.061,160.363l17.922-57.129-66.09-38.158L144.971,122.2Z" transform="translate(-141.038 -60.174)"/><path class="c" d="M216.31,169.423,144.373,127.89l19.94-63.559,71.937,41.532ZM152.237,124.83l60.249,34.787,15.906-50.7-60.255-34.78Z" transform="translate(-144.373 -64.331)"/></g><g transform="translate(150.105 190.578)"><path class="e" d="M160.169,73.757l-17.922,57.129,66.091,38.158,17.922-57.129Z" transform="translate(-138.316 -68.855)"/><path class="c" d="M213.587,178.1,141.65,136.571l19.94-63.559,71.93,41.532Zm-64.079-44.593L209.756,168.3,225.663,117.6,165.414,82.818Z" transform="translate(-141.65 -73.012)"/></g><g transform="translate(101.939 95.286)"><path class="e" d="M218.941,97.436,152.85,59.278l-17.923,57.129,66.091,38.158Z" transform="translate(-131 -54.371)"/><path class="c" d="M206.261,163.63,134.331,122.1l19.94-63.566,71.93,41.533Zm-64.072-44.593,60.249,34.787,15.906-50.7-60.249-34.78Z" transform="translate(-134.331 -58.532)"/></g><g transform="translate(216.198 228.735)"><path class="e" d="M170.212,79.555,152.29,136.684l66.091,38.159L236.3,117.714Z" transform="translate(-148.361 -74.652)"/><path class="c" d="M223.623,183.9l-71.93-41.532,19.94-63.559,71.93,41.533Zm-64.072-44.593L219.8,174.1,235.706,123.4,175.457,88.616Z" transform="translate(-151.693 -78.81)"/></g><g transform="translate(84.013 152.415)"><path class="e" d="M150.127,67.958,132.2,125.087,198.3,163.246l17.922-57.129Z" transform="translate(-128.272 -63.052)"/><path class="c" d="M203.544,172.311l-71.937-41.532,19.94-63.566,71.937,41.533Zm-64.072-44.593,60.242,34.78,15.906-50.693-60.249-34.78Z" transform="translate(-131.607 -67.213)"/></g><g transform="translate(132.185 247.701)"><path class="h" d="M157.447,82.438l-17.923,57.129,66.091,38.158L223.537,120.6Z" transform="translate(-135.596 -77.53)"/><path class="g" d="M210.857,186.79l-71.93-41.533,19.934-63.566L230.8,123.224ZM146.785,142.2l60.249,34.787,15.906-50.7L162.691,91.5Z" transform="translate(-138.927 -81.692)"/></g><g transform="translate(396.55 400.34)"><path class="e" d="M179.695,162.76l66.091,38.158,17.922-57.129-66.091-38.158Z" transform="translate(-175.768 -100.728)"/><path class="c" d="M251.028,209.978,179.1,168.445l19.934-63.559,71.937,41.532Zm-64.072-44.586,60.249,34.78,15.906-50.693-60.255-34.787Z" transform="translate(-179.098 -104.886)"/></g><g transform="translate(414.47 343.211)"><path class="i" d="M182.418,154.079l66.091,38.158,17.923-57.129L200.341,96.95Z" transform="translate(-178.489 -92.046)"/><path class="g" d="M253.751,201.3l-71.93-41.533,19.94-63.559,71.93,41.532ZM189.679,156.7l60.249,34.787L265.834,140.8l-60.249-34.787Z" transform="translate(-181.821 -96.205)"/></g><g transform="translate(330.457 362.177)"><path class="e" d="M187.574,99.833l-17.922,57.129,66.091,38.159,17.922-57.129Z" transform="translate(-165.723 -94.925)"/><path class="c" d="M240.985,204.185l-71.93-41.532L189,99.087l71.93,41.533Zm-64.072-44.593,60.249,34.787,15.906-50.7L192.819,108.9Z" transform="translate(-169.055 -99.087)"/></g><g transform="translate(432.39 286.081)"><path class="e" d="M185.141,145.4l66.091,38.158,17.922-57.129L203.063,88.269Z" transform="translate(-181.21 -83.365)"/><path class="c" d="M256.481,192.622,184.544,151.09l19.94-63.566,71.93,41.532Zm-64.072-44.593,60.249,34.78,15.9-50.693L208.308,97.33Z" transform="translate(-184.544 -87.524)"/></g><g transform="translate(264.364 324.021)"><path class="e" d="M177.532,94.034l-17.923,57.129L225.7,189.322l17.922-57.129Z" transform="translate(-155.678 -89.129)"/><path class="c" d="M230.942,198.387l-71.93-41.533,19.94-63.566,71.937,41.532ZM166.87,153.794l60.249,34.787,15.906-50.7-60.249-34.787Z" transform="translate(-159.012 -93.289)"/></g><g transform="translate(119.859 38.163)"><path class="h" d="M203.742,145.884l17.922-57.129L155.573,50.6l-17.922,57.129Z" transform="translate(-133.721 -45.696)"/><path class="g" d="M208.984,154.944l-71.93-41.533,19.94-63.559,71.937,41.533Zm-64.072-44.593,60.249,34.787,15.906-50.7-60.249-34.78Z" transform="translate(-137.054 -49.852)"/></g><g transform="translate(450.316 228.952)"><path class="e" d="M205.787,79.588l-17.922,57.129,66.091,38.158,17.922-57.129Z" transform="translate(-183.938 -74.683)"/><path class="c" d="M259.2,183.941l-71.93-41.533L207.2,78.843l71.937,41.532Zm-64.072-44.593,60.249,34.78,15.906-50.693L211.025,88.649Z" transform="translate(-187.268 -78.843)"/></g><g transform="translate(35.847 57.129)"><path class="e" d="M208.9,91.638,142.808,53.479l-17.923,57.129,66.091,38.159Z" transform="translate(-120.955 -48.575)"/><path class="c" d="M196.218,157.832,124.288,116.3l19.94-63.566,71.93,41.532Zm-64.072-44.593,60.249,34.78L208.3,97.327,148.052,62.54Z" transform="translate(-124.288 -52.734)"/></g><g transform="translate(17.927 114.259)"><path class="e" d="M206.175,100.319,140.084,62.16l-17.922,57.129,66.091,38.158Z" transform="translate(-118.234 -57.257)"/><path class="c" d="M193.495,166.507l-71.93-41.533,19.94-63.559,71.93,41.533Zm-64.072-44.593L189.672,156.7l15.906-50.693L145.329,71.221Z" transform="translate(-121.565 -61.415)"/></g><g transform="translate(198.271 285.864)"><path class="e" d="M167.489,88.236l-17.923,57.129,66.091,38.159L233.58,126.4Z" transform="translate(-145.634 -83.333)"/><path class="c" d="M220.906,192.583,148.969,151.05l19.94-63.559,71.937,41.533ZM156.833,148l60.249,34.78,15.9-50.693L172.739,97.3Z" transform="translate(-148.969 -87.491)"/></g><g transform="translate(53.767)"><path class="e" d="M211.621,82.957,145.531,44.8l-17.922,57.129L193.7,140.086Z" transform="translate(-123.676 -39.893)"/><path class="c" d="M198.948,149.151l-71.937-41.539,19.94-63.559,71.937,41.533Zm-64.072-44.593,60.249,34.78,15.9-50.693L150.782,53.859Z" transform="translate(-127.011 -44.053)"/></g><g transform="translate(0 171.388)"><path class="e" d="M137.361,70.841,119.439,127.97l66.091,38.158L203.451,109Z" transform="translate(-115.506 -65.938)"/><path class="c" d="M190.778,175.188l-71.937-41.533L138.788,70.1l71.93,41.533ZM126.705,130.6l60.249,34.78,15.9-50.693L142.611,79.9Z" transform="translate(-118.841 -70.096)"/></g><g transform="translate(66.093 209.545)"><path class="e" d="M147.4,76.639l-17.922,57.129,66.09,38.159L213.494,114.8Z" transform="translate(-125.551 -71.734)"/><path class="c" d="M200.814,180.992l-71.93-41.532,19.94-63.566,71.93,41.533ZM136.748,136.4l60.242,34.78L212.9,120.487,152.648,85.7Z" transform="translate(-128.884 -75.894)"/></g><path class="j" d="M213.275,114.78l.191,10.543a4.65,4.65,0,0,0,2.3,3.777l9.6,5.541c3,1.731,3.087,6.173.119,6.476l-9.47.981a2.475,2.475,0,0,0-2.178,2.7l.191,10.543c.059,3.3-3.929,3.712-5.824.6l-6.048-9.937a4.066,4.066,0,0,0-3.639-2.106l-9.477.981c-2.961.309-5.508-3.883-3.718-6.107l5.739-7.121a3.56,3.56,0,0,0-.072-4.008l-6.048-9.937c-1.9-3.113.52-6.107,3.521-4.376l9.6,5.535a2.734,2.734,0,0,0,3.6-.369l5.732-7.121C209.175,109.147,213.216,111.483,213.275,114.78Z" transform="translate(246.255 326.777)"/><path class="j" d="M157.359,61.655,157.55,72.2a4.659,4.659,0,0,0,2.3,3.777l9.6,5.541c3,1.731,3.08,6.173.118,6.476l-9.477.981a2.48,2.48,0,0,0-2.178,2.7l.2,10.543c.059,3.3-3.929,3.712-5.824.6l-6.048-9.937a4.063,4.063,0,0,0-3.646-2.106l-9.47.981c-2.968.309-5.515-3.883-3.718-6.107l5.739-7.121a3.55,3.55,0,0,0-.079-4.008l-6.041-9.937c-1.9-3.113.52-6.114,3.521-4.376l9.6,5.535a2.725,2.725,0,0,0,3.593-.369l5.739-7.121C153.259,56.022,157.3,58.358,157.359,61.655Z" transform="translate(-65.811 30.288)"/><g transform="translate(411.506 277.577)"><path class="j" d="M193.342,122.035l-11.015-6.36,9.236-29.443,11.015,6.36Z" transform="translate(-176.031 -86.232)"/><path class="j" d="M192.386,109.158l-11.015-6.36,3.346-10.664,11.015,6.36Z" transform="translate(-181.371 -53.287)"/></g><path class="j" d="M155.349,86.577l9.744-2.921,9.317,23.84,27.1-22.9,5.7,11.594-36.493,36.63Z" transform="translate(84.911 176.973)"/><path class="k" d="M228.9,114.453c-3.073,9.779-13.748,12.978-23.849,7.147s-15.807-18.493-12.741-28.272,13.747-12.984,23.849-7.147S231.962,104.674,228.9,114.453Z" transform="translate(286.533 174.794)"/></g></g><g transform="translate(137.686)"><path class="c" d="M149.243,105.734c-10.793-.494-18.038-9.516-18.038-22.454,0-16.584,11.313-36.11,25.751-44.448,8.029-4.633,16.235-5.219,22.52-1.593,6.239,3.606,9.819,10.931,9.819,20.1,0,12.458-6.436,27.015-16.4,37.11l-9.358-9.253c7.535-7.634,12.6-18.828,12.6-27.857,0-4.337-1.178-7.509-3.238-8.7s-5.567-.586-9.358,1.593c-10.391,6-19.17,21.138-19.17,33.05,0,3.383.711,9.088,5.482,9.305Z" transform="translate(-131.205 -34.884)"/></g><g transform="translate(217.151 47.575)"><path class="c" d="M161.318,112.962c-10.786-.494-18.038-9.516-18.038-22.454,0-16.584,11.313-36.11,25.758-44.448,8.035-4.64,16.242-5.212,22.52-1.593,6.239,3.606,9.819,10.931,9.819,20.1,0,12.458-6.436,27.021-16.4,37.11l-9.365-9.253c7.535-7.627,12.6-18.822,12.6-27.857,0-4.337-1.185-7.509-3.238-8.7-2.073-1.185-5.567-.6-9.358,1.593-10.391,6-19.177,21.138-19.177,33.05,0,3.383.717,9.088,5.482,9.306Z" transform="translate(-143.28 -42.113)"/></g><g transform="translate(296.623 95.153)"><path class="c" d="M173.4,120.188c-10.793-.487-18.045-9.51-18.045-22.448,0-16.591,11.313-36.116,25.751-44.454,8.035-4.626,16.248-5.212,22.514-1.593,6.245,3.606,9.825,10.931,9.825,20.1,0,12.451-6.436,27.015-16.393,37.1l-9.365-9.246c7.535-7.634,12.6-18.828,12.6-27.857,0-4.343-1.185-7.515-3.238-8.7-2.079-1.191-5.567-.605-9.358,1.586-10.391,6-19.17,21.138-19.17,33.056,0,3.376.711,9.088,5.475,9.3Z" transform="translate(-155.356 -49.343)"/></g><g transform="translate(376.095 142.728)"><path class="c" d="M185.464,127.422c-10.786-.494-18.032-9.516-18.032-22.454,0-16.591,11.313-36.11,25.751-44.454,8.035-4.633,16.242-5.206,22.52-1.586,6.239,3.6,9.819,10.924,9.819,20.1,0,12.451-6.436,27.015-16.393,37.1l-9.365-9.246c7.535-7.634,12.6-18.828,12.6-27.857,0-4.343-1.178-7.516-3.238-8.7s-5.561-.6-9.358,1.593c-10.391,6-19.17,21.132-19.17,33.05,0,3.383.711,9.088,5.475,9.305Z" transform="translate(-167.432 -56.572)"/></g><g transform="translate(455.56 190.302)"><path class="c" d="M197.546,134.651c-10.786-.494-18.038-9.516-18.038-22.454,0-16.591,11.319-36.116,25.758-44.454,8.042-4.633,16.235-5.206,22.513-1.586,6.239,3.6,9.819,10.924,9.819,20.1,0,12.451-6.436,27.015-16.393,37.1l-9.365-9.246c7.535-7.634,12.6-18.828,12.6-27.857,0-4.343-1.178-7.515-3.238-8.7s-5.561-.592-9.351,1.593c-10.391,6-19.177,21.132-19.177,33.05,0,3.376.711,9.088,5.482,9.305Z" transform="translate(-179.507 -63.801)"/></g><g transform="translate(535.025 237.874)"><path class="c" d="M209.627,141.881c-10.793-.494-18.045-9.516-18.045-22.454,0-16.584,11.319-36.1,25.764-44.448,8.029-4.64,16.235-5.219,22.514-1.593,6.239,3.6,9.819,10.924,9.819,20.1,0,12.458-6.436,27.021-16.393,37.1l-9.365-9.246c7.535-7.627,12.6-18.822,12.6-27.857,0-4.343-1.178-7.515-3.238-8.7s-5.561-.605-9.352,1.593c-10.4,6-19.183,21.138-19.183,33.05,0,3.383.717,9.088,5.482,9.305Z" transform="translate(-191.582 -71.03)"/></g><g transform="translate(268.732 307.538)"><path class="l" d="M214.864,143.575l3.2-4.8s4.8,8.233-1.6,14.182-14.866,8.226-19.44,9.371a46.379,46.379,0,0,0-9.832,4.179v5.186s-11.207,9.391-18.3,8.016a17.691,17.691,0,0,1-10.747-7.088L156.78,165.3l21.724-8Z" transform="translate(-119.518 237.368)"/><path class="m" d="M186.789,140.066s6.62,4.791,13.537.362c2.553-1.632,14.537-3.429,17.736,0s-1.6,13.491-15.775,18.065-12.807,6.173-18.071,9.148-14.86,6.634-19.2,5.488-8.233-6.173-8.233-6.173a77.6,77.6,0,0,0,1.369-11.076l.23-5.62a33.557,33.557,0,0,0,15.775,1.375C182.847,150.26,186.789,140.066,186.789,140.066Z" transform="translate(-119.518 235.71)"/><path class="n" d="M157.059,157.374c2.29,8.68,2.744,14.037,2.744,15.07s5.146,76.491,3.093,81.979-4.8,9.259-4.8,23.323,4.8,56.6,4.8,56.6,18.124-.276,28.812-8.233,6.179-7.95,6.179-7.95-7.9-19.144-5.5-26.35,2.4-15.09,2.4-26.067V254.766s3.086-2.251,7.891-25.482,5.127-102.314,4.1-105.059-42.52-17.3-42.52-17.3S151.576,136.505,157.059,157.374Z" transform="translate(-125.634 59.63)"/><g transform="translate(71.101 392.477)"><path class="l" d="M214.405,144.187l4.745-1.8s2.685,9.345,0,13.458-19.262,11.319-23.955,12.918l-4.686,1.606-.191,3.659s-5.41,5.028-16.044,5.712-12.353-8.345-12.353-8.345l1.1-9.516,31.378-3.06Z" transform="translate(-161.922 -134.912)"/><path class="m" d="M165.108,160.545s-2.356,1.119-2.7,5.442-.342,6.035-.342,6.035.23,7.094,12.695,6.18,15.09-4.232,19.552-5.607,20.7-7.548,22.527-10.747,3.883-12.346-.691-17.15-4.9-3.429-8.332-2.632-13.247,5.258-17.321,6.976-18.367,3.547-18.367,3.547Z" transform="translate(-161.146 -141.254)"/></g><g transform="translate(0 54.678)"><g transform="translate(0.002 1.828)"><path class="o" d="M158.932,107.967s-5.146,5.1-6.693,10.437,3.343,15.735,3.343,15.735a7.011,7.011,0,0,0,3.35,2.481c2.113.671,4.113-1.053,4.113-1.053s1.158,2.665,2.744,2.586A7.14,7.14,0,0,0,168.928,137s3.291,2.7,4.067-.382-4.067-8.009-4.067-8.009v-9.661l.981-10.128Z" transform="translate(-146.541 8.945)"/><path class="p" d="M195.545,94.77s-5.969-7.535-15.228-3.251-16.979,10.286-18.354,19.717-2.231,20.579-4.284,25.554-5.837,19.552-6.18,24.356,1.889,22.638,1.889,28.3v11.49s-3.33,20.118-1.922,22.408,3.3,8.667,4.837,8.911a23.42,23.42,0,0,0,4.291,0s3.6-8.726,2.224-8.621a6.946,6.946,0,0,0-2.567.8l-1.718,2.409-.684-3.5a23.5,23.5,0,0,0,2.4-5.791c.342-2.211,3.6-4.265,4.626-7.009s1.547,3.771,5.489,3.6,4.8,3.284,5.317,3.955.856,4.784,2.573,5.989,3.172,2.145,3.429,1.29,1.29-2.231,0-4.547a9.96,9.96,0,0,1-1.283-5.745,19.2,19.2,0,0,0-1.29-5.232l-11.063-13.458s-1.8-15.525.086-23.415a72.815,72.815,0,0,0,1.889-15.09s9.6-22.3,11.142-25.9S198.427,108.149,195.545,94.77Z" transform="translate(-151.118 -90.202)"/></g><path class="i" d="M199.146,93.905s-16.531-11.273-32.062,4.12-8.661,26.37-12.1,37.117-3.87,15.551-3.87,15.551-.244,11.846,11.648,8.667,14.636-7.641,14.636-7.641,15.939-38.532,18.144-42.421S199.146,93.905,199.146,93.905Z" transform="translate(-151.118 -89.924)"/></g><path class="q" d="M160.84,120.335s-3.448,21.217,0,35.623,26.08,85.072,21.283,105.993-10.385,18.519-7.943,32.247,3.488,38.071,3.488,44.593-.033,7.43-.033,7.43,2.428,8.693,13.405,5.943,18.525-13.715,19.894-18.177-.342-9.562-.342-9.562.684-20.283,2.744-38.459,2.4-32.589,5.831-39.446,1.718-7.548,3.429-16.808,9.266-47.679,6.522-61.743-9.608-59.689-9.608-59.689Z" transform="translate(-105.414 67.193)"/><path class="i" d="M252.478,208.078c.737,6.16-3.613,12.037-3.613,12.037s-4.633,5.706-15.426,9.832a64.381,64.381,0,0,1-19.381,4.014c-24.692,1.527-47.8-18.874-47.8-18.874s.171-23.507-.165-30.226c-.342-6.785-3.791-29.95-6.9-35.827-3.054-5.818-4.462-24.35-4.8-34.01s7.575-22.211,18.532-24.356,21.586,9.384,21.586,9.384S224.4,119.88,237.73,123.216c10.062,2.481,11.977,4.008,14.353,7.515.849,1.237,1.639,2.593,2.823,4.291,4.8,6.838-7.233,44.58-7.233,44.58s1.415,9.266,1.757,10.852S251.8,201.865,252.478,208.078Z" transform="translate(-132.921 -32.586)"/><path class="r" d="M192.6,174.181c.737,6.16-3.613,12.037-3.613,12.037s-4.633,5.706-15.426,9.832c0-2.994-.059-5.594-.171-7.233-.336-6.726-4.534-4.449-7.588-10.273-3.106-5.818,5.212-42.605,4.87-52.273-.395-9.661,1.059-23.014,12.017-25.159,4.238-.849,5.956-6.035,9.516-4.278.849,1.237,1.639,2.593,2.823,4.291,4.8,6.838-7.233,44.58-7.233,44.58s1.415,9.266,1.757,10.852S191.923,167.969,192.6,174.181Z" transform="translate(-73.044 1.31)"/><path class="o" d="M168.427,90.346s.4,10.056-2.573,11.885-3.889,0-6.634,1.836-.224,7.088,2.06,9.832,12.122,8.687,21.039,8.233,12.563-2.56,15.432-4.218,3.705-.23,3.705-.23-5.646-4.014-5.416-6.3.8-17.38,1.711-19.664S168.427,90.346,168.427,90.346Z" transform="translate(-112.587 -33.898)"/><path class="s" d="M167.246,139.439c0-.8-2.915-6.982-7.259-12.583s-.869-28.147,6.107-35.465,20.3-10.78,29.22-9.523,20.355,15.715,18.868,28.18-5.6,18.868-8.121,21.493-9.358,7.107-11.431,10.635c-4.232,7.206-11.78,2.2-11.78,2.2Z" transform="translate(-112.321 -81.616)"/><path class="o" d="M189.912,87.485l2.369-2.073s2.343,5.508,1.171,9.049-1.922,3.981-1.606,5.034c1.566,5.3-3.488,14.774-4.824,18.644-2.718,7.884-5.232,6.278-8.318,6.278s-4.8,2.606-8.16,2.929-8.535-3.5-8.535-3.5a7.7,7.7,0,0,0,6.522-.342,31.739,31.739,0,0,0,5.831-4.232s-2.975.237-4.8-1.02-4.232-12.853,1.369-11.859a19.762,19.762,0,0,1,8.805,3.731,143.106,143.106,0,0,1,5.489-14.978A34.354,34.354,0,0,1,189.912,87.485Z" transform="translate(-90.335 -60.427)"/><path class="o" d="M194.872,121.11s8,15.321,10.747,23.784,4.35,24.7,5.265,29.726,22.408,17.841,22.408,17.841,7.088-19.216,0-31.45-24.7-46.534-24.7-46.534-9.509-21.263-11.727-21.724-3.014,0-3.014,0-1.579-1.83-3.554-1.4a9.074,9.074,0,0,0-2.7.849c-.2.112-3.126-.79-4.324-.336s-3.258,3.086-3.258,3.086-3.35-4.12-5.574-4.034-5.745,3.2-5.745,3.2-2.06,5.548-1.461,5.8,2.349.744,3.086-.434,1.718-2.882,1.718-2.882h1.54l4.633,4.771,2.488,6.864s-.6-1.632-2.915-.777-1.718.605-1.547,2.915.513,6.634,1.632,7.542a63.472,63.472,0,0,0,8.99,4.659C187.376,122.591,194.872,121.11,194.872,121.11Z" transform="translate(-61.797 -29.677)"/><path class="p" d="M165.953,115.625s.48,13.451,8.917,22.869,33.392,24.007,42.309,25.837,19.894,1.145,22.639-2.053-.23-21.954-7.548-25.159-18.749-9.148-23.323-14.406S191.8,98.744,186.88,96.783,168.013,98.929,165.953,115.625Z" transform="translate(-68.324 0.506)"/><path class="i" d="M171.649,102.891s-9.621,8.957-4.363,24.942,21.375,25.291,21.375,25.291,18.644,3.738,22.764-8.614,1.138-21.724,1.138-21.724S199.3,98.831,191.3,97.087,176.117,95.613,171.649,102.891Z" transform="translate(-69.657 -0.251)"/></g><g transform="translate(45.131 201.994)"><path class="o" d="M120.778,262.062c.592,2.876,1.31,5.6,2.066,8.226,1.882,6.469,4.06,12.3,5.074,16.222,1.132,4.376,2.145,12.254,2.863,18.769.645,5.936,1.04,10.747,1.04,10.747s-1.408,2.06,5.324,3.685,9.115-3.139,11.28-4.337.763-8.029.763-8.029V286.951a100.586,100.586,0,0,1,2.7-24.85,167.74,167.74,0,0,0,3.909-29.628c.112-5.311,6.509-16.373,10.312-32.76s3.146-87.777,3.146-87.777l-33.1-22.355s-6.732,5.64-9.332,11.938-4.883,20.934-5.535,35.044,9.226,59.782,8.035,69.12-8.364,28.64-9.661,42.092A48.509,48.509,0,0,0,120.778,262.062Z" transform="translate(-103.878 68.383)"/><path class="o" d="M161.9,98.912s12.563-19.322,4.225-22.579-18.749-.434-21.783,7.594-11.359,23.4-13.307,26.653-13.892,43.494-13.892,43.494,5.844,8.95,13.076,14.017c6.765,4.745,11.484,15.985,11.484,15.985l.007,11.425,8.575,10.641,6.12,4.824,5.5.592s2.692-.29,1.56-1.264-1.77-.869-1.77-.869l3.962-.474s1.178-1.652-1.737-2.5-5.62-1.185-6.107-1.007-4.436-6.8-4.758-8.5.039-5.745.27-8.226-1.678-6.318-1.678-6.318l2.257,2.711s2.343,4.383,4.034,4.83,2.02,1.645,3.4-.441-.362-4.515-.619-5.008-2.935-3.2-2.935-3.2-1.691-4.35-3.093-6.008-3.448-3.146-3.988-3.824-2.659-8.562-4.7-13.682-9.213-14.485-9.213-14.485l11.662-22.408Z" transform="translate(-117.141 -12.944)"/><path class="t" d="M169.337,120.658c0,19.6-.283,66.218-3.218,79.044-3.784,16.387-10.174,27.462-10.286,32.773a164.305,164.305,0,0,1-3.955,29.608,102.486,102.486,0,0,0-2.652,24.863v11.918a8.507,8.507,0,0,1,0,1.869c-.283,1.8-1.474,4.574-5.877,5.93-.112.059-.23.059-.342.112-7.4,2.2-7.91,1.869-9.378,1.02a15.936,15.936,0,0,1-2.823-2.547c-.849-.842-1.468-1.579-1.468-1.579s-2.04-14.294-4.014-23.053c-.79-3.5-1.7-7.173-2.488-10.339-.961-4.067-1.81-7.292-2.033-8.081a49.191,49.191,0,0,1-1.132-14.406c1.3-13.451,8.476-32.773,9.667-42.1,1.185-9.378-8.707-55.03-8.029-69.159.625-14.064,2.942-28.759,5.541-35.031s9.319-11.918,9.319-11.918L169.284,111.9S169.337,115.236,169.337,120.658Z" transform="translate(-103.889 68.394)"/><path class="u" d="M150.285,94.305c0,19.6-.283,66.218-3.218,79.044-3.784,16.387-10.174,27.462-10.286,32.773a164.307,164.307,0,0,1-3.955,29.608,102.486,102.486,0,0,0-2.652,24.863v11.918a8.507,8.507,0,0,1,0,1.869c-.283,1.8-1.474,4.574-5.877,5.93-4.521-36.051,3.337-69.344,6.667-77.524,13.122-32.247,12.728-53.207,13.405-67.337.619-14.123-4.08-24.7-1.481-30.977C144.579,100.294,148.08,96.45,150.285,94.305Z" transform="translate(-84.837 94.747)"/><path class="v" d="M142.163,129.71s1.731-.322,2.929-.54,4.337-7.489,10.089-7.812,11.286,2.382,9.766,7.483S158.5,139.8,153.969,141.424s-6.91,2.007-8.062,3.666-7.654,13.7-14.926,13.59c-5.127-.072-8.206-3.771-9.569-5.943a4.076,4.076,0,0,1-.559-2.975l2.112-10.543a.674.674,0,0,1,1.145-.375c1.685,1.691,5.337,4.969,8.391,4.969,4.126,0,10.069-5.212,10.069-5.212l-.29-4.554Z" transform="translate(-96.853 245.584)"/><path class="f" d="M142.163,126.457s1.731-.322,2.929-.54,4.337-4.232,10.089-4.554,10.089,1.843,8.568,6.943-5.245,8.239-9.779,9.871-6.91,2-8.062,3.659-7.654,13.7-14.926,13.6c-5.127-.079-8.206-3.777-9.569-5.943a4.082,4.082,0,0,1-.559-2.975l2.112-10.543a.673.673,0,0,1,1.145-.382c1.685,1.7,5.337,4.975,8.391,4.975,4.126,0,10.069-5.219,10.069-5.219l-.29-4.548Z" transform="translate(-96.853 245.579)"/><path class="o" d="M125.318,139.351c3.468,10.2,6.509,7.377,9.082,14.544s6.318,68.567,4.8,76.168c-1.421,7.114-3.995,15.571-4.659,24.3-.053.645-.086,1.191-.112,1.744-.013.349-.026.7-.033,1.073a43.673,43.673,0,0,0,.342,5.581c.994,8.213,3.81,17.591,5.331,25.639a78.877,78.877,0,0,1,.737,16.821c-.237,5.39-.737,9.477-.737,9.477s2.6,4.771,2.435,4.771c0-.007,8.47-.237,13.405-1.955,4.2-1.461,5.548-7.766,4.692-11.313-.164-.665-2.4-3.738-2.521-4.12-.691-2.06,7.127-26.811,10.1-38.538.461-1.823.8-3.238.961-4.186,1.3-7.16,4.126-19.967,2.606-27.344s21.046-67.271,18.012-98.083S175.873,91.4,175.873,91.4H174.36l-45.81,1.013S121.843,129.15,125.318,139.351Z" transform="translate(-77.08 78.506)"/><path class="v" d="M148.551,126.231a37.627,37.627,0,0,0,9.115.651,57.566,57.566,0,0,0,11.306-2.764c3.745-1.224,11.069-.895,13.432,1.79s-2.771,15.057-9.6,18.881-18.15,3.876-19.861,4.745-10.418,7.055-17.7,5.91-8.983-4.31-9.069-6.344,0-8.134.651-8.3,2.034-7.937,2.928-7.1,4.35,11.74,16.953,3.4C152.473,133.286,148.551,126.231,148.551,126.231Z" transform="translate(-66.894 257.335)"/><path class="f" d="M148.551,125.839a37.774,37.774,0,0,0,9.115.645,56.644,56.644,0,0,0,11.306-2.764c3.745-1.217,11.069-.895,13.432,1.79s-2.771,15.057-9.6,18.881-18.15,3.883-19.861,4.745-10.418,7.055-17.7,5.916-8.983-4.31-9.069-6.351,0-8.134.651-8.3,2.034-7.93,2.928-7.1,4.35,11.74,16.953,3.4C152.473,132.894,148.551,125.839,148.551,125.839Z" transform="translate(-66.894 255.128)"/><path class="t" d="M125.318,139.351c3.468,10.2,6.509,7.377,9.082,14.544s6.318,68.567,4.8,76.168c-1.421,7.114-3.995,15.571-4.659,24.3-.046.856-.079,1.415-.112,1.744-.026.263-.033.632-.033,1.073.013,1.264.138,3.2.342,5.581,1.191,13.741,4.982,41.934,4.982,41.934a11.761,11.761,0,0,0,1.086.527A26.856,26.856,0,0,0,152.7,307.08a13.737,13.737,0,0,0,5.686-1.421,8.1,8.1,0,0,0,4.047-4.192l2.81-22.2,2.942-15.722c.461-1.823.8-3.238.961-4.186,1.3-7.16,4.126-19.967,2.606-27.344s21.046-67.271,18.012-98.083S175.873,91.4,175.873,91.4H174.36l-45.81,1.013S121.843,129.15,125.318,139.351Z" transform="translate(-77.08 78.506)"/><path class="f" d="M199.158,165.8a86.785,86.785,0,0,0-2.145,15.821c0,4.126,6.16,21.757,6.16,21.757s-4.238,7.285-17.065,10.28a54.393,54.393,0,0,1-15.992,1.191c-25.541-1.586-49.272-29.042-49.272-29.042s2.02-5.021,6.272-14.583c10.365-23.277-3.047-40.789-3.047-51.865s3.5-26.5,11.076-32.773c7.627-6.272,14.011-2.6,14.011-2.6s2.488-.454,3.165-5.2l.619-4.8,23.619,7.4s-2.145,13,2.034,16.275a13.742,13.742,0,0,0,3.053,1.579c2.823,1.132,6.5,2.2,10,3.9,3.672,1.8,7.121,4.238,8.93,8.075,4.238,9.213,10.964,21.586,7.061,27.633-3.9,6.1-6.5,9.154-6.949,14.353C200.289,158.4,200.289,161,199.158,165.8Z" transform="translate(-96.475 -18.675)"/><path class="j" d="M149.894,141.07a86.785,86.785,0,0,0-2.145,15.821c0,4.126,6.16,21.757,6.16,21.757s-4.238,7.285-17.065,10.28c-6.443-5.535-8.871-15.367-4.126-24.692,4.8-9.319,8.022-18.019,8.253-24.744s-11.3-16.051-11.3-27.12,3.5-26.442,11.069-32.773a14.2,14.2,0,0,1,1.639-1.185c3.672,1.8,7.121,4.238,8.93,8.075,4.238,9.213,10.964,21.586,7.061,27.633-3.9,6.1-6.5,9.154-6.949,14.353C151.026,133.673,151.026,136.266,149.894,141.07Z" transform="translate(-47.211 6.054)"/><path class="o" d="M198.29,162.45s-12.043-5.041-17.255-5.857-14.643-.816-19.526-2.277-20.348-9.279-26.692-5.37-6.022,21.737-2.606,28.732,21.158,1.053,30.759,2.514,44.922.651,47.528-2.6,7.647-22.138,8.786-31.575,1.955-23.06,2.929-25.12,1.3-5.64,1.467-7.759,5.206-10.9,5.449-11.635-1.3,1.546.243-1.139,4.561-7.167,4.561-7.167l2.034-4.8V84.413s-2.521-2.85-2.606-3.666-.079-5.614-.079-5.614-1.3-5.041-2.277-4.719-.981.652-.981,1.955a33.4,33.4,0,0,0,.408,3.824L229.7,80.5l-3.416,4.725,2.277-7-.164-7s-1.711-4.883-2.85-4.8a1.875,1.875,0,0,0-1.79,2.685c.651,1.79,1.224,3.422,1.224,3.422l-.652,6.344-3.5,5.7,1.468-8.792-.981-5.778a48.094,48.094,0,0,1-2.929-4.146c-.243-.651-2.685-.165-2.685,1.3s1.625,4.074,1.625,4.074v6.1s-4.311,12.695-6.509,12.859-3.258-3.422-3.258-3.422V82.051a5.991,5.991,0,0,0,.572-4.067c-.572-2.033-1.27-2.442-1.27-2.442a1.5,1.5,0,0,0-1.968,1.145c-.342,1.619-.178,5.285-1.237,6.015s.408,10.339.408,10.339,1.547,4.554,1.547,4.883,4.2,7.581,4.719,9.733c1.981,8.239-6.456,28-7.542,32.773S198.29,162.45,198.29,162.45Z" transform="translate(-46.487 -65.578)"/><path class="o" d="M124.714,89.008c.816,2.606,4.719,8.463,18.558,10.418s16.762,0,16.762,0l.579-.171a12.729,12.729,0,0,1-3.073-1.619c-4.126-3.258-1.987-16.275-1.987-16.275l-23.626-7.377-.652,4.771c-.651,4.771-3.152,5.212-3.152,5.212S123.905,86.409,124.714,89.008Z" transform="translate(-75.449 -18.664)"/><g transform="translate(41.005 9.195)"><path class="p" d="M149.583,69.006c.27-.059,9,2.382,9,2.382s1.737,5.594,1.468,7.272-1.415,2.876-1.415,3.909,1.139,3.086.981,6.291-1.586,9-4.317,12.148c-2.685,3.1-4.337,5.245-4.554,5.864s-12.886,3.8-19.177.921-4.883-23.817-4.883-23.817Z" transform="translate(-105.621 -55.647)"/><path class="u" d="M172.322,73.444s.27.349.691.974c1.566,2.317,6.259,8.549,2.132,12.425-6.949,6.509-5.1,18.986-5.1,18.986s-.961-2.659-3.475-2.823-3.9,5.778-3.343,8.035c1.283,5.153,2.455,5.041,2.455,5.041s14.932,7.588,14.077,8.16c-7.259,4.857-31.97,25.521-51.832,5.647-7.509-7.522-3.587-27.89-3.093-41.559s18.058-20.1,28.706-21.237S172.322,73.444,172.322,73.444Z" transform="translate(-123.372 -66.975)"/></g></g><g transform="translate(120.753 395.792)"><path class="u" d="M134.667,284.795l-6.035,2.02c.092-.619,9.2-59.617,8.141-78.452-.6-10.576,4.626-35.287,9.233-57.09,2.876-13.6,5.594-26.442,5.594-30.312,0-7.858-4.725-19.184-7.693-25.2l4.567-.737c.461.934,8.772,15.156,8.772,25.936,0,4.462-2.521,16.387-5.712,31.483-4.311,20.394-9.674,45.777-9.121,55.6C143.505,227.455,135.042,282.248,134.667,284.795Z" transform="translate(-128.632 -95.026)"/></g></g></g></svg>