<svg xmlns="http://www.w3.org/2000/svg" width="43" height="58.709" viewBox="0 0 43 58.709"><defs><style>.a{fill:#fff;}</style></defs><g transform="translate(-68.5)"><g transform="translate(68.5 0)"><path class="a" d="M110.64,128.632a.86.86,0,0,0-.86.86V133.7a1.435,1.435,0,0,1-1.433,1.433H71.653A1.435,1.435,0,0,1,70.22,133.7V89.129a.86.86,0,0,0-1.72,0V133.7a3.157,3.157,0,0,0,3.153,3.153h36.693A3.157,3.157,0,0,0,111.5,133.7v-4.212A.86.86,0,0,0,110.64,128.632Z" transform="translate(-68.5 -78.147)"/><path class="a" d="M111.248,16.305,95.195.252A.86.86,0,0,0,94.587,0H71.653A3.157,3.157,0,0,0,68.5,3.153V7.265a.86.86,0,0,0,1.72,0V3.153A1.435,1.435,0,0,1,71.653,1.72H93.727v12.9a3.157,3.157,0,0,0,3.153,3.153h12.9v29.9a.86.86,0,1,0,1.72,0V16.913A.86.86,0,0,0,111.248,16.305Zm-15.8-1.685V2.936l13.117,13.117H96.88a1.435,1.435,0,0,1-1.433-1.433Z" transform="translate(-68.5 0)"/><path class="a" d="M139.08,217.66a2.58,2.58,0,1,0-2.58-2.58A2.583,2.583,0,0,0,139.08,217.66Zm0-3.44a.86.86,0,1,1-.86.86A.861.861,0,0,1,139.08,214.22Z" transform="translate(-128.703 -188.133)"/><path class="a" d="M207.08,217.66h14.448a2.58,2.58,0,1,0,0-5.16H207.08a2.58,2.58,0,0,0,0,5.16Zm0-3.44h14.448a.86.86,0,1,1,0,1.72H207.08a.86.86,0,0,1,0-1.72Z" transform="translate(-188.905 -188.133)"/><path class="a" d="M139.08,277.66a2.58,2.58,0,1,0-2.58-2.58A2.583,2.583,0,0,0,139.08,277.66Zm0-3.44a.86.86,0,1,1-.86.86A.861.861,0,0,1,139.08,274.22Z" transform="translate(-128.703 -241.253)"/><path class="a" d="M207.08,277.66h14.448a2.58,2.58,0,1,0,0-5.16H207.08a2.58,2.58,0,0,0,0,5.16Zm0-3.44h14.448a.86.86,0,1,1,0,1.72H207.08a.86.86,0,0,1,0-1.72Z" transform="translate(-188.905 -241.253)"/><path class="a" d="M139.08,337.66a2.58,2.58,0,1,0-2.58-2.58A2.583,2.583,0,0,0,139.08,337.66Zm0-3.44a.86.86,0,1,1-.86.86A.861.861,0,0,1,139.08,334.22Z" transform="translate(-128.703 -294.373)"/><path class="a" d="M207.08,337.66H208.6a.86.86,0,1,0,0-1.72H207.08a.86.86,0,0,1,0-1.72h14.448a.86.86,0,1,1,0,1.72h-9.262a.86.86,0,0,0,0,1.72h9.262a2.58,2.58,0,1,0,0-5.16H207.08a2.58,2.58,0,0,0,0,5.16Z" transform="translate(-188.905 -294.373)"/></g></g></svg>