<svg xmlns="http://www.w3.org/2000/svg" width="59.866" height="59.747" viewBox="0 0 59.866 59.747"><defs><style>.a{fill:#fff;}</style></defs><g transform="translate(0 -0.506)"><path class="a" d="M101.412,1.606C96.29-3.516,78.7,10.652,73.191,15.428l-17,5.026a8.68,8.68,0,0,0-3.665,2.179L48.864,26.3a2.021,2.021,0,0,0,0,2.86l4.826,4.826a2.025,2.025,0,0,0,2.86,0l4.08-4.08a2.983,2.983,0,0,0,.706,1.115l1.1,1.1-1.78,1.78-2.3,2.3a1.726,1.726,0,0,0,0,2.44l6.022,6.022a1.725,1.725,0,0,0,2.44,0L70.9,40.582l1.1,1.1a2.985,2.985,0,0,0,1.115.706l-4.08,4.08a2.025,2.025,0,0,0,0,2.86l4.826,4.826a2.025,2.025,0,0,0,2.86,0l3.665-3.665a8.682,8.682,0,0,0,2.179-3.665l5.027-17q1.315-1.517,2.556-3.031a.877.877,0,0,0-1.357-1.111A161.249,161.249,0,0,1,74.935,40.467a1.211,1.211,0,0,1-1.7-.025l-1.1-1.1c.335-.336.524-.521.821-.837A24.737,24.737,0,0,0,76.1,34.37l5.173-8.539a2.977,2.977,0,0,0-4.088-4.088l-8.539,5.173a24.723,24.723,0,0,0-3.923,2.95c-.253.232-.5.468-.745.711l-.3.3-1.1-1.1a1.212,1.212,0,0,1-.025-1.7c3.655-3.873,7.63-7.712,11.65-11.206l.014-.014A100.481,100.481,0,0,1,90.028,5.321L97.7,13a80.947,80.947,0,0,1-6.372,9.477.877.877,0,0,0,1.393,1.066c3.629-4.741,12.915-17.706,8.688-21.934ZM75.48,52.914a.269.269,0,0,1-.38,0l-4.826-4.826a.269.269,0,0,1,0-.38l1.475-1.475,5.205,5.206Zm9.344-19.986.03-.032L80.882,46.327a6.92,6.92,0,0,1-1.738,2.922l-.949.949-5.205-5.206c6.744-6.744,8.621-8.553,11.834-12.065ZM65.593,43.407l-5.982-5.982,1.665-1.665,5.982,5.982ZM65.22,31.816a23.027,23.027,0,0,1,4.337-3.4L78.1,23.242a1.223,1.223,0,0,1,1.68,1.68L74.6,33.46A22.967,22.967,0,0,1,71.2,37.8l-2.7,2.7L62.516,34.52Zm-9.91.928a.269.269,0,0,1-.38,0L50.1,27.918a.268.268,0,0,1,0-.38l1.475-1.475,5.205,5.205Zm2.715-2.715-5.205-5.205.949-.949a6.919,6.919,0,0,1,2.922-1.738l13.43-3.971C66.639,21.351,65.023,23.03,58.025,30.028ZM98.559,11.372,91.647,4.46c2.042-1.032,7.146-3.287,8.618-1.511C101.689,4.661,99.553,9.4,98.559,11.372Z" transform="translate(-42.627 0)"/><path class="a" d="M1.5,256.931,4.43,254a.877.877,0,0,0-1.24-1.24L.257,255.691a.877.877,0,0,0,1.24,1.24Z" transform="translate(0 -222.534)"/><path class="a" d="M26.992,276.563,24.06,279.5a.877.877,0,0,0,1.24,1.24l2.932-2.932a.877.877,0,1,0-1.24-1.24Z" transform="translate(-21.02 -243.555)"/><path class="a" d="M50.8,300.366,47.863,303.3a.877.877,0,1,0,1.24,1.24l2.932-2.932a.877.877,0,0,0-1.24-1.24Z" transform="translate(-42.04 -264.575)"/><path class="a" d="M89.451,339.022l-2.932,2.932a.877.877,0,0,0,1.24,1.24l2.932-2.932a.877.877,0,0,0-1.24-1.24Z" transform="translate(-76.177 -298.712)"/><path class="a" d="M113.254,362.824l-2.932,2.932a.877.877,0,0,0,1.24,1.24l2.932-2.932a.877.877,0,0,0-1.24-1.24Z" transform="translate(-97.197 -319.731)"/><path class="a" d="M137.058,386.628l-2.932,2.932a.877.877,0,0,0,1.24,1.24l2.932-2.932a.877.877,0,0,0-1.24-1.24Z" transform="translate(-118.218 -340.752)"/><path class="a" d="M174.543,424.114l-2.932,2.932a.877.877,0,0,0,1.24,1.24l2.932-2.932a.877.877,0,0,0-1.24-1.24Z" transform="translate(-151.32 -373.855)"/><path class="a" d="M198.347,447.917l-2.932,2.932a.877.877,0,1,0,1.24,1.24l2.932-2.932a.877.877,0,1,0-1.24-1.24Z" transform="translate(-172.341 -394.876)"/><path class="a" d="M222.151,471.72l-2.932,2.932a.877.877,0,0,0,1.24,1.24l2.932-2.932a.877.877,0,0,0-1.24-1.24Z" transform="translate(-193.362 -415.896)"/><path class="a" d="M351.768,85.785a.877.877,0,1,0,.813,1.554,5.29,5.29,0,1,0-4.9,0,.877.877,0,1,0,.812-1.554,3.537,3.537,0,1,1,3.279,0Z" transform="translate(-304.521 -67.864)"/></g></svg>