<svg xmlns="http://www.w3.org/2000/svg" width="38.785" height="35.971" viewBox="0 0 38.785 35.971"><defs><style>.a{fill:#08813e;}</style></defs><g transform="translate(0 -16.43)"><path class="a" d="M38.5,31.33h0l-4.953-3.283V17.072a.642.642,0,0,0-.642-.642H5.882a.642.642,0,0,0-.642.642V28.048L.287,31.33h0A.641.641,0,0,0,0,31.866V51.758a.642.642,0,0,0,.642.642h37.5a.642.642,0,0,0,.642-.642V31.866a.642.642,0,0,0-.288-.535ZM5.239,33.577,3.224,32.508H5.239Zm-3.954-.643,14.772,7.836L1.285,50.561ZM19.392,40.1,36.011,51.116H2.773L19.392,40.1Zm3.336.67L37.5,32.933V50.562L22.728,40.77Zm10.817-8.262h2.016l-2.016,1.069Zm2.466-1.285H33.545V29.588ZM32.26,17.715V34.259l-10.751,5.7-1.762-1.168a.642.642,0,0,0-.71,0l-1.762,1.168-10.752-5.7V17.715H32.26ZM5.239,31.223H2.774l2.465-1.634Z"/><path class="a" d="M164.921,88.659h5.118a.642.642,0,1,0,0-1.285h-5.118a4.481,4.481,0,0,1-4.475-4.475v-.19a4.475,4.475,0,1,1,8.951,0v.474a.969.969,0,1,1-1.938,0v-.9a2.78,2.78,0,1,0-.947,2.085,2.253,2.253,0,0,0,4.169-1.185v-.474a5.76,5.76,0,0,0-11.52,0v.19A5.767,5.767,0,0,0,164.921,88.659Zm-.237-4.886a1.49,1.49,0,1,1,1.49-1.49A1.492,1.492,0,0,1,164.684,83.773Z" transform="translate(-145.529 -55.336)"/></g></svg>