<svg xmlns="http://www.w3.org/2000/svg" width="34.666" height="24.374" viewBox="0 0 34.666 24.374"><defs><style>.a{fill:#08813e;}</style></defs><g transform="translate(0 -76)"><g transform="translate(0 76)"><path class="a" d="M31.619,76H3.047A3.051,3.051,0,0,0,0,79.047V97.328a3.051,3.051,0,0,0,3.047,3.047H31.619a3.05,3.05,0,0,0,3.047-3.047V79.047A3.05,3.05,0,0,0,31.619,76Zm-.427,2.031L19.487,89.675a3.047,3.047,0,0,1-4.311,0L3.473,78.031ZM2.031,96.914V79.462l8.777,8.731Zm1.444,1.429,8.774-8.718,1.494,1.486a5.078,5.078,0,0,0,7.179,0l1.5-1.488,8.774,8.718Zm29.16-1.429-8.777-8.722,8.777-8.731Z" transform="translate(0 -76)"/></g></g></svg>