<svg xmlns="http://www.w3.org/2000/svg" width="71.367" height="46.979" viewBox="0 0 71.367 46.979"><defs><style>.a{fill:#2ba037;}.b{fill:#3bb54a;}.c{fill:#fedb41;}</style></defs><g transform="translate(0 -78.653)"><path class="a" d="M116.073,141.347h-8.019L58,165.485v8.586a4.7,4.7,0,0,0,4.617,4.536h53.459a4.374,4.374,0,0,0,4.3-4.451q0-.042,0-.085V146.045a4.455,4.455,0,0,0-4.2-4.694Z" transform="translate(-49.005 -52.974)"/><path class="b" d="M62.451,88.535v22.6a4.536,4.536,0,0,1-4.536,4.536H4.456A4.455,4.455,0,0,1,0,111.215c0-.027,0-.054,0-.082V83.189a4.455,4.455,0,0,1,4.373-4.535H57.914a4.536,4.536,0,0,1,4.536,4.536v5.346Z"/><g transform="translate(4.861 82.784)"><circle class="a" cx="3.24" cy="3.24" r="3.24" transform="translate(46.169 21.627)"/><circle class="a" cx="14.418" cy="14.418" r="14.418" transform="translate(11.907 0)"/><circle class="a" cx="3.24" cy="3.24" r="3.24" transform="translate(0 0.567)"/></g><path class="c" d="M145.882,150.355a6.642,6.642,0,0,1-7.128-1.539l-.567-.648h6.723a1.62,1.62,0,0,0,0-3.24h-8.1c0-.243-.081-.567-.081-.81h8.181a1.62,1.62,0,0,0,0-3.24h-7.371a7.7,7.7,0,0,1,1.215-1.62,6.642,6.642,0,0,1,7.128-1.458,1.655,1.655,0,0,0,1.215-3.078A10.206,10.206,0,0,0,136.4,136.99a10.692,10.692,0,0,0-2.349,3.888h-1.3a1.62,1.62,0,1,0,0,3.24h.729c0,.243.081.567.081.81h-.81a1.62,1.62,0,1,0,0,3.24h1.62a10.449,10.449,0,0,0,2.025,2.916A9.882,9.882,0,0,0,143.452,154a9.636,9.636,0,0,0,3.645-.648,1.62,1.62,0,0,0-1.215-3Z" transform="translate(-110.809 -46.836)"/></g></svg>