<svg xmlns="http://www.w3.org/2000/svg" width="56.391" height="57.183" viewBox="0 0 56.391 57.183"><defs><style>.a{fill:#fff;}</style></defs><g transform="translate(-3.544)"><path class="a" d="M69.759,67.374H52.881a.838.838,0,1,0,0,1.675H69.759a.838.838,0,0,0,0-1.675Z" transform="translate(-43.082 -59.849)"/><path class="a" d="M69.759,116.75H52.881a.838.838,0,0,0,0,1.675H69.759a.838.838,0,0,0,0-1.675Z" transform="translate(-43.082 -103.711)"/><path class="a" d="M337.8,309.781v-4.128c1.423.1,1.952.752,2.44.752.61,0,.895-.773.895-1.159,0-1-1.952-1.423-3.335-1.464v-.549c0-.244-.3-.468-.61-.468a.537.537,0,0,0-.59.468v.59c-1.932.2-3.864,1.22-3.864,3.782,0,2.6,2.033,3.335,3.864,3.986v4.779c-2.074-.163-2.623-1.586-3.294-1.586-.508,0-.935.671-.935,1.159,0,1,1.708,2.359,4.23,2.4v.63a.537.537,0,0,0,.59.468c.305,0,.61-.224.61-.468v-.691a3.939,3.939,0,0,0,3.7-4.189c0-2.766-1.932-3.66-3.7-4.311Zm-1.078-.386c-1.078-.407-1.952-.834-1.952-1.993,0-1.057.813-1.566,1.952-1.708Zm.956,6.934v-4.29a2.378,2.378,0,0,1,1.789,2.277A1.934,1.934,0,0,1,337.674,316.329Z" transform="translate(-292.098 -268.952)"/><path class="a" d="M268.879,257.362a15.061,15.061,0,1,0-15.061,15.061h.216c.068,0,.135,0,.2-.006A15.079,15.079,0,0,0,268.879,257.362ZM254.2,270.742h-.013c-.122,0-.245.005-.368.005a13.388,13.388,0,1,1,.381-.005Z" transform="translate(-208.944 -215.24)"/><path class="a" d="M279.561,271.281a11.824,11.824,0,1,0,11.824,11.824A11.837,11.837,0,0,0,279.561,271.281Zm0,21.973a10.149,10.149,0,1,1,10.149-10.149A10.16,10.16,0,0,1,279.561,293.254Z" transform="translate(-234.687 -240.983)"/><path class="a" d="M34.532,55.508H7.338a2.121,2.121,0,0,1-2.119-2.119V3.794A2.121,2.121,0,0,1,7.338,1.675H34.171v9.968a3.075,3.075,0,0,0,3.072,3.072H47.21v9.54a.838.838,0,1,0,1.675,0V13.877a.838.838,0,0,0-.245-.592L35.6.245A.838.838,0,0,0,35.008,0H7.338A3.8,3.8,0,0,0,3.544,3.794V53.389a3.8,3.8,0,0,0,3.794,3.794H34.532a.838.838,0,1,0,0-1.675Zm1.314-43.865V2.86L46.025,13.039H37.242a1.4,1.4,0,0,1-1.4-1.4Z"/></g></svg>