<svg xmlns="http://www.w3.org/2000/svg" width="21" height="28" viewBox="0 0 21 28"><g transform="translate(-64)"><path d="M84.125,19.25a1.752,1.752,0,0,1-1.75-1.75V11.375a7.887,7.887,0,0,0-5.553-7.529,2.625,2.625,0,1,0-4.642.006,7.963,7.963,0,0,0-5.556,7.6V17.5a1.752,1.752,0,0,1-1.75,1.75.875.875,0,0,0-.875.875v3.5a.875.875,0,0,0,.875.875h6.594a3.1,3.1,0,0,0-.031.438,3.063,3.063,0,1,0,6.094-.438h6.594A.875.875,0,0,0,85,23.625v-3.5A.875.875,0,0,0,84.125,19.25ZM74.5,1.75a.875.875,0,1,1-.875.875A.876.876,0,0,1,74.5,1.75Zm1.313,23.188a1.313,1.313,0,1,1-2.551-.438h2.476A1.308,1.308,0,0,1,75.813,24.938ZM83.25,22.75H65.75V20.889A3.506,3.506,0,0,0,68.375,17.5V11.451a6.175,6.175,0,0,1,6.1-6.2H74.5a6.125,6.125,0,0,1,6.125,6.125V17.5a3.506,3.506,0,0,0,2.625,3.389Z"/><path d="M176.875,133.25a.875.875,0,0,1-.875-.875A4.38,4.38,0,0,1,180.375,128a.875.875,0,0,1,0,1.75,2.628,2.628,0,0,0-2.625,2.625A.875.875,0,0,1,176.875,133.25Z" transform="translate(-105.875 -121)"/></g></svg>