<svg xmlns="http://www.w3.org/2000/svg" width="99.833" height="104.991" viewBox="0 0 99.833 104.991"><defs><style>.a{fill:#08813e;}</style></defs><g transform="translate(-12.55 0)"><g transform="translate(12.55 0)"><path class="a" d="M21.809,63.393a1.541,1.541,0,0,0,.391-1.187l-1.6-15.98a4.824,4.824,0,0,0-1.682-8.167V25.324l11.712,5.437V50.852c0,2.674,3.392,4.687,10.371,6.157a114.138,114.138,0,0,0,22.4,1.959,114.122,114.122,0,0,0,22.4-1.959c6.978-1.469,10.371-3.483,10.371-6.157V30.761l13.9-6.454a1.541,1.541,0,0,0,0-2.8L98.85,16.3a1.541,1.541,0,0,0-1.3,2.8l8.215,3.814L63.4,42.578,24.357,24.45h37.4a1.541,1.541,0,1,0,0-3.082h-37.4L63.4,3.24,90.7,15.912a1.541,1.541,0,0,0,1.3-2.8L64.051.143a1.541,1.541,0,0,0-1.3,0L16.73,21.511a1.559,1.559,0,0,0-.892,1.4v15.15a4.824,4.824,0,0,0-1.682,8.167l-1.6,15.98A1.557,1.557,0,0,0,14.091,63.9h6.575a1.542,1.542,0,0,0,1.143-.507ZM63.4,45.819a1.54,1.54,0,0,0,.649-.143L93.092,32.192V50.838c-.135.444-1.961,1.968-8.5,3.274A113.41,113.41,0,0,1,63.4,55.886a113.41,113.41,0,0,1-21.192-1.775c-6.538-1.306-8.363-2.829-8.5-3.274V32.192L62.754,45.675a1.542,1.542,0,0,0,.649.143ZM17.379,40.887a1.746,1.746,0,1,1-1.746,1.746A1.748,1.748,0,0,1,17.379,40.887Zm-1.585,19.93L17.13,47.456q.124.006.248.006c.083,0,.166,0,.248-.006l1.336,13.362Z" transform="translate(-12.55 0)"/><path class="a" d="M65.5,366.472a6.472,6.472,0,1,0-6.472,6.472A6.48,6.48,0,0,0,65.5,366.472Zm-9.862,0a3.39,3.39,0,1,1,3.39,3.39A3.394,3.394,0,0,1,55.633,366.472Z" transform="translate(-44.332 -286.033)"/><path class="a" d="M117.2,339.506h-4.9A13.064,13.064,0,0,0,99.346,328a1.535,1.535,0,0,0-.253.021c-.09.015-8.98,1.488-18.653,2.446a13.008,13.008,0,0,0-16.231.79c-4.381-.112-9.75-.531-15.977-1.249a1.541,1.541,0,1,0-.353,3.062c5.21.6,9.837,1,13.809,1.179a12.954,12.954,0,0,0-1.822,5.257H51.678a1.541,1.541,0,0,0-1.541,1.541c0,3.409-2.549,5.9-5.9,7.537a13.04,13.04,0,1,0-10.64,5.51,116.652,116.652,0,0,0,22.272-1.913c2.789-.473,5.432-.921,8.542-1.169a13.114,13.114,0,0,0,1.935,1.355v11.691a1.556,1.556,0,0,0,2.028,1.462l4.444-1.481,4.444,1.481a1.556,1.556,0,0,0,2.028-1.462v-11.69a13.124,13.124,0,0,0,1.179-.762c2.1.282,4.163.608,6.159.926a88.458,88.458,0,0,0,13.808,1.485c.192,0,.385,0,.577,0,7.149-.1,17.728-4.3,17.728-12.967A1.541,1.541,0,0,0,117.2,339.506Zm-34.415,1.528s0,.009,0,.013,0,.009,0,.013a9.965,9.965,0,1,1,0-.026Zm-59.152.013a9.965,9.965,0,1,1,9.965,9.965A9.976,9.976,0,0,1,23.632,341.047Zm31.722,8.1c-2.349.4-4.841.82-7.866,1.162.288-.181.567-.366.833-.557a10.937,10.937,0,0,0,4.778-7.16h6.767a12.959,12.959,0,0,0,2.025,5.574C59.6,348.423,57.52,348.775,55.354,349.142Zm20.854,12.779-2.9-.968a1.542,1.542,0,0,0-.975,0l-2.9.968v-8.277a13.01,13.01,0,0,0,6.78,0Zm24.76-10.989a82.393,82.393,0,0,1-13.855-1.443c-1.265-.2-2.558-.406-3.872-.6a12.979,12.979,0,0,0,2.531-6.3H94.4a1.541,1.541,0,1,0,0-3.082H85.772a12.977,12.977,0,0,0-2.485-6.238c8.108-.884,15.14-2.016,16.18-2.186a9.981,9.981,0,0,1,9.724,8.423h-7.317a1.541,1.541,0,1,0,0,3.082h13.607C114.231,347.924,106.605,350.851,100.968,350.932Z" transform="translate(-18.906 -260.607)"/><path class="a" d="M249.917,372.944a6.472,6.472,0,1,0-6.472-6.472A6.48,6.48,0,0,0,249.917,372.944Zm0-9.862a3.39,3.39,0,1,1-3.39,3.39A3.394,3.394,0,0,1,249.917,363.082Z" transform="translate(-196.004 -286.033)"/></g></g></svg>