<svg xmlns="http://www.w3.org/2000/svg" width="32.735" height="32.712" viewBox="0 0 32.735 32.712"><defs><style>.a{fill:#08813e;stroke:#08813e;}</style></defs><g transform="translate(-0.479 -0.411)"><g transform="translate(1 1.018)"><g transform="translate(0 0)"><path class="a" d="M31.778,25.4l-6.4-4.266a1.867,1.867,0,0,0-2.5.406l-1.864,2.4A.8.8,0,0,1,20,24.151l-.354-.2a21.423,21.423,0,0,1-5.583-4.385,21.51,21.51,0,0,1-4.385-5.583l-.194-.354a.8.8,0,0,1,.211-1.025l2.394-1.863a1.868,1.868,0,0,0,.407-2.5l-4.266-6.4a1.858,1.858,0,0,0-2.5-.564L3.045,2.891A3.774,3.774,0,0,0,1.324,5.124c-.963,3.51-.239,9.568,8.685,18.492,7.1,7.1,12.383,9.007,16.015,9.007A9.331,9.331,0,0,0,28.5,32.3a3.77,3.77,0,0,0,2.233-1.721l1.609-2.674A1.858,1.858,0,0,0,31.778,25.4Zm-.344,1.965-1.6,2.675a2.722,2.722,0,0,1-1.606,1.245c-3.24.89-8.9.153-17.468-8.414S1.45,8.643,2.34,5.4A2.726,2.726,0,0,1,3.587,3.794l2.675-1.6a.806.806,0,0,1,1.087.244L9.666,5.913,11.611,8.83a.811.811,0,0,1-.176,1.085L9.04,11.778a1.843,1.843,0,0,0-.488,2.366l.19.346a22.344,22.344,0,0,0,4.566,5.825,22.368,22.368,0,0,0,5.825,4.565l.346.191a1.844,1.844,0,0,0,2.366-.488l1.863-2.395a.811.811,0,0,1,1.085-.176l6.4,4.266A.805.805,0,0,1,31.434,27.365Z" transform="translate(-1 -1.018)"/><path class="a" d="M283.155,70.377a8.964,8.964,0,0,1,8.954,8.954.527.527,0,1,0,1.053,0,10.018,10.018,0,0,0-10.007-10.007.527.527,0,1,0,0,1.053Z" transform="translate(-265.245 -65.108)"/><path class="a" d="M283.155,121.577a5.8,5.8,0,0,1,5.794,5.794.527.527,0,1,0,1.053,0,6.855,6.855,0,0,0-6.847-6.847.527.527,0,1,0,0,1.053Z" transform="translate(-265.245 -113.148)"/><path class="a" d="M283.155,172.777a2.637,2.637,0,0,1,2.634,2.634.527.527,0,0,0,1.053,0,3.691,3.691,0,0,0-3.687-3.687.527.527,0,1,0,0,1.053Z" transform="translate(-265.245 -161.187)"/></g></g></g></svg>