<svg xmlns="http://www.w3.org/2000/svg" width="42.181" height="64.902" viewBox="0 0 42.181 64.902"><defs><style>.a{fill:#08813e;}</style></defs><g transform="translate(-87.87)"><g transform="translate(87.87)"><path class="a" d="M108.96,64.9a1.293,1.293,0,0,1-1.1-.606c-.816-1.3-20-32.028-20-43.205a21.09,21.09,0,0,1,42.181,0c0,11.177-19.179,41.9-20,43.205A1.293,1.293,0,0,1,108.96,64.9Zm0-62.316a18.526,18.526,0,0,0-18.5,18.5c0,4.257,3.368,12.811,9.74,24.738,3.5,6.55,7.033,12.469,8.765,15.313,1.732-2.844,5.266-8.763,8.765-15.313,6.372-11.926,9.74-20.481,9.74-24.738A18.526,18.526,0,0,0,108.96,2.586Zm0,29.63A11.125,11.125,0,1,1,120.086,21.09,11.138,11.138,0,0,1,108.96,32.216Zm0-19.665A8.539,8.539,0,1,0,117.5,21.09,8.549,8.549,0,0,0,108.96,12.551Z" transform="translate(-87.87)"/></g><g transform="translate(92.535 6.236)"><path class="a" d="M125.242,64.379a1.293,1.293,0,0,1-1.293-1.293,16.426,16.426,0,0,1,9.128-14.72,1.293,1.293,0,1,1,1.15,2.316,13.771,13.771,0,0,0-7.692,12.4A1.293,1.293,0,0,1,125.242,64.379Z" transform="translate(-123.949 -48.231)"/></g><g transform="translate(107.668 4.665)"><path class="a" d="M249.015,40.237a1.286,1.286,0,0,1-.574-.135,13.7,13.7,0,0,0-6.148-1.437,1.293,1.293,0,0,1,0-2.586,16.263,16.263,0,0,1,7.3,1.707,1.293,1.293,0,0,1-.576,2.451Z" transform="translate(-241 -36.079)"/></g></g></svg>