<svg xmlns="http://www.w3.org/2000/svg" width="24.799" height="24.8" viewBox="0 0 24.799 24.8"><g transform="translate(-0.007)"><g transform="translate(0.007)"><g transform="translate(0)"><path d="M20.06,7.205a.484.484,0,0,0,.484-.484V1.453A1.455,1.455,0,0,0,19.091,0H1.46A1.455,1.455,0,0,0,.007,1.453V23.347A1.455,1.455,0,0,0,1.46,24.8H19.091a1.455,1.455,0,0,0,1.453-1.453V19.778a.484.484,0,1,0-.969,0v3.568a.485.485,0,0,1-.484.484H1.46a.485.485,0,0,1-.484-.484V1.453A.485.485,0,0,1,1.46.969H19.091a.485.485,0,0,1,.484.484V6.721A.484.484,0,0,0,20.06,7.205Z" transform="translate(-0.007)"/></g></g><g transform="translate(5.819 2.616)"><path d="M124.463,54a4.454,4.454,0,0,0-3.057,7.7.479.479,0,0,0,.052.048,4.448,4.448,0,0,0,6.01,0,.486.486,0,0,0,.052-.048,4.454,4.454,0,0,0-3.057-7.7Zm0,7.944a3.469,3.469,0,0,1-2.107-.71,2.422,2.422,0,0,1,4.213,0A3.469,3.469,0,0,1,124.463,61.944Zm-.775-3.681v-.315a.775.775,0,0,1,1.55,0v.315a.775.775,0,0,1-1.55,0Zm3.581,2.261a3.36,3.36,0,0,0-1.427-1.2,1.735,1.735,0,0,0,.364-1.065v-.315a1.744,1.744,0,1,0-3.487,0v.315a1.735,1.735,0,0,0,.364,1.065,3.36,3.36,0,0,0-1.427,1.2,3.487,3.487,0,1,1,5.613,0Z" transform="translate(-120.007 -54)"/></g><g transform="translate(9.791 21.216)"><path d="M205.107,438h-2.616a.484.484,0,0,0,0,.969h2.616a.484.484,0,0,0,0-.969Z" transform="translate(-202.007 -438)"/></g><g transform="translate(5.529 18.503)"><path d="M121.369,382h-6.878a.484.484,0,0,0,0,.969h6.878a.484.484,0,0,0,0-.969Z" transform="translate(-114.007 -382)"/></g><g transform="translate(5.529 15.791)"><path d="M121.369,326h-6.878a.484.484,0,0,0,0,.969h6.878a.484.484,0,0,0,0-.969Z" transform="translate(-114.007 -326)"/></g><g transform="translate(3.46 13.078)"><path d="M72.114,270.142a.484.484,0,1,0,.142.342A.488.488,0,0,0,72.114,270.142Z" transform="translate(-71.287 -270)"/></g><g transform="translate(3.46 15.791)"><path d="M72.114,326.142a.484.484,0,1,0,.142.342A.489.489,0,0,0,72.114,326.142Z" transform="translate(-71.287 -326)"/></g><g transform="translate(3.46 18.503)"><path d="M72.114,382.142a.484.484,0,1,0,.142.342A.489.489,0,0,0,72.114,382.142Z" transform="translate(-71.287 -382)"/></g><g transform="translate(5.529 13.078)"><path d="M121.369,270h-6.878a.484.484,0,0,0,0,.969h6.878a.484.484,0,0,0,0-.969Z" transform="translate(-114.007 -270)"/></g><g transform="translate(14.421 6.039)"><path d="M306.958,124.949a2.034,2.034,0,0,0-2.779.745l-6.1,10.558a.485.485,0,0,0-.062.188l-.429,3.843a.484.484,0,0,0,.769.444l3.114-2.293a.484.484,0,0,0,.132-.148l6.1-10.558A2.037,2.037,0,0,0,306.958,124.949Zm-8.28,14.341.224-2.007,1.4.809Zm2.332-1.908-1.846-1.066,4.891-8.472,1.846,1.066Zm5.853-10.138-.477.827L304.54,127l.477-.827a1.066,1.066,0,0,1,1.846,1.066Z" transform="translate(-297.589 -124.675)"/></g></g></svg>