<svg xmlns="http://www.w3.org/2000/svg" width="86.874" height="92" viewBox="0 0 86.874 92"><defs><style>.a{fill:#dd5790;}.b{fill:#86f1a7;}.c{fill:#78d090;}.d{fill:#da387d;}.e{fill:#dae7ef;}.f{fill:#c1d5e4;}.g{fill:#ffcbbe;}.h{fill:#eaac9d;}.i{fill:#407093;}.j{fill:#c67d66;}.k{fill:#be694f;}</style></defs><g transform="translate(-14.266 0)"><g transform="translate(14.266 69.533)"><path class="a" d="M100.526,386.961H14.879l-.613,13.145v5.23a3.067,3.067,0,0,0,3.067,3.067h33.7v-3.638a6.668,6.668,0,1,1,13.337,0V408.4h33.7a3.067,3.067,0,0,0,3.067-3.067v-5.026Z" transform="translate(-14.266 -386.961)"/></g><g transform="translate(21.424 37.029)"><path class="b" d="M92.9,206.072H87.86A33.758,33.758,0,0,0,54.1,239.83v3.962a.9.9,0,0,0,.9.9h70.761a.9.9,0,0,0,.9-.9V239.83A33.758,33.758,0,0,0,92.9,206.072Z" transform="translate(-54.102 -206.072)"/></g><path class="c" d="M231.694,206.072h-5.041q-1.7,0-3.356.166a33.762,33.762,0,0,1,30.4,33.592v3.962a.9.9,0,0,1-.9.9h11.753a.9.9,0,0,0,.9-.9V239.83a33.758,33.758,0,0,0-33.758-33.758Z" transform="translate(-171.471 -169.043)"/><g transform="translate(88.852 69.533)"><path class="d" d="M432.417,386.961v18.376a3.067,3.067,0,0,1-3.067,3.067h9.221a3.067,3.067,0,0,0,3.067-3.067v-4.894l-.613-13.482Z" transform="translate(-429.35 -386.961)"/></g><g transform="translate(42.777 40.316)"><path class="e" d="M186.691,233.192l-11.645,5.861a1.455,1.455,0,0,1-2.109-1.3V224.365Z" transform="translate(-172.937 -224.365)"/></g><g transform="translate(42.778 47.218)"><path class="f" d="M183.692,262.776l-10.754,5.412v1.074a1.455,1.455,0,0,0,2.109,1.3l11.645-5.861Z" transform="translate(-172.938 -262.776)"/></g><g transform="translate(58.874 40.316)"><path class="e" d="M262.518,233.192l11.645,5.861a1.455,1.455,0,0,0,2.109-1.3V224.365Z" transform="translate(-262.518 -224.365)"/></g><g transform="translate(69.296 40.316)"><path class="f" d="M320.689,226.394v11.359a1.442,1.442,0,0,1-.171.684l1.223.616a1.455,1.455,0,0,0,2.109-1.3V224.365Z" transform="translate(-320.518 -224.365)"/></g><g transform="translate(28.605 24.553)"><path class="g" d="M104.312,140.258c2.135,3.557,1.851,7.651-.636,9.144s-6.233-.181-8.369-3.739-1.358-6.83,1.128-8.323,5.741-.64,7.876,2.918Z" transform="translate(-94.066 -136.639)"/></g><g transform="translate(75.122 24.553)"><path class="g" d="M354.372,140.258c-2.135,3.557-1.851,7.651.636,9.144s6.233-.181,8.369-3.739,1.358-6.83-1.128-8.323S356.508,136.7,354.372,140.258Z" transform="translate(-352.94 -136.639)"/></g><g transform="translate(35.907 7.482)"><path class="g" d="M178.294,61.026c0,12.038-11.3,23.3-21.8,23.3s-21.8-11.26-21.8-23.3,9.758-19.387,21.8-19.387,21.8,7.35,21.8,19.387Z" transform="translate(-134.703 -41.639)"/></g><g transform="translate(43.572 9.878)"><path class="h" d="M202.582,54.97a18.2,18.2,0,0,1,4.824,12.72c0,12.038-11.3,23.3-21.8,23.3a18.1,18.1,0,0,1-8.248-2.158c4.041,3.918,9.176,6.43,14.13,6.43,10.492,0,21.8-11.26,21.8-23.3A18.225,18.225,0,0,0,202.582,54.97Z" transform="translate(-177.362 -54.97)"/></g><g transform="translate(55.371 53.085)"><circle class="i" cx="2.331" cy="2.331" r="2.331" transform="translate(0)"/></g><g transform="translate(75.122 24.553)"><path class="h" d="M354.372,140.258c-2.135,3.557-1.851,7.651.636,9.144s6.233-.181,8.369-3.739,1.358-6.83-1.128-8.323S356.508,136.7,354.372,140.258Z" transform="translate(-352.94 -136.639)"/></g><g transform="translate(45.002 0)"><path class="j" d="M186.876,13.512A8.578,8.578,0,0,1,197.3.708L204.2,3.7a9.087,9.087,0,0,0,8.275-.537l2.855-1.706a1.116,1.116,0,0,1,1.614,1.358l-1.581,4.112a11.793,11.793,0,0,1-11.007,7.56H188.748a2.288,2.288,0,0,1-1.872-.972Z" transform="translate(-185.316 0)"/></g><g transform="translate(45.203 1.291)"><path class="k" d="M216.246,7.344,213.391,9.05c-.25.149-.507.282-.767.405a11.792,11.792,0,0,1-10.709,6.858H186.434a8.554,8.554,0,0,0,1.36,3.089,2.287,2.287,0,0,0,1.872.972h15.606a11.793,11.793,0,0,0,11.007-7.56L217.86,8.7A1.116,1.116,0,0,0,216.246,7.344Z" transform="translate(-186.434 -7.182)"/></g><g transform="translate(46.572 26.322)"><g transform="translate(17.255)"><circle class="k" cx="2.503" cy="2.503" r="2.503"/></g><g transform="translate(0)"><circle class="k" cx="2.503" cy="2.503" r="2.503"/></g></g><g transform="translate(57.703 62.945)"><path class="e" d="M297.393,353.7h-.582a60.366,60.366,0,0,1-16.489-2.214,31.333,31.333,0,0,0-8.574-1.194A31.828,31.828,0,0,0,256,354.5V368.02a6.669,6.669,0,0,1,6.113,4,31.342,31.342,0,0,1,18.209-.326,60.373,60.373,0,0,0,16.489,2.214h.582a2.044,2.044,0,0,0,2.044-2.044V355.748A2.044,2.044,0,0,0,297.393,353.7Z" transform="translate(-256 -350.296)"/></g><g transform="translate(14.266 62.945)"><path class="e" d="M57.7,368.02V354.5a31.828,31.828,0,0,0-15.747-4.2,31.333,31.333,0,0,0-8.574,1.194A60.366,60.366,0,0,1,16.892,353.7H16.31a2.044,2.044,0,0,0-2.044,2.044v16.118a2.044,2.044,0,0,0,2.044,2.044h.582A60.366,60.366,0,0,0,33.381,371.7a31.342,31.342,0,0,1,18.209.326A6.669,6.669,0,0,1,57.7,368.02Z" transform="translate(-14.266 -350.296)"/></g><g transform="translate(57.703 66.016)"><path class="f" d="M297.392,367.727h-.582a64.406,64.406,0,0,1-6.595-.336v10.4a.606.606,0,0,1-.672.6,57.677,57.677,0,0,1-9.222-1.805,31.335,31.335,0,0,0-8.574-1.194,31.828,31.828,0,0,0-15.747,4.2v2.452a6.669,6.669,0,0,1,6.113,4,31.342,31.342,0,0,1,18.209-.326,60.372,60.372,0,0,0,16.489,2.214h.582a2.044,2.044,0,0,0,2.044-2.044V369.771A2.044,2.044,0,0,0,297.392,367.727Z" transform="translate(-255.999 -367.391)"/></g><g transform="translate(14.266 63.641)"><path class="f" d="M57.7,371.2V357.675a32.414,32.414,0,0,0-9.188-3.5V364.5a.6.6,0,0,1-.714.6,31.321,31.321,0,0,0-14.419.642,60.372,60.372,0,0,1-16.489,2.214H14.266v7.091a2.044,2.044,0,0,0,2.044,2.044h.582a60.366,60.366,0,0,0,16.489-2.214,31.342,31.342,0,0,1,18.209.326A6.669,6.669,0,0,1,57.7,371.2Z" transform="translate(-14.266 -354.171)"/></g><g transform="translate(49.702 79.336)"><path class="d" d="M226.142,454.182a1.333,1.333,0,0,1-1.333-1.333v-3.331a5.336,5.336,0,0,0-10.672,0v3.331a1.333,1.333,0,1,1-2.665,0v-3.331a8,8,0,0,1,16,0v3.331A1.333,1.333,0,0,1,226.142,454.182Z" transform="translate(-211.473 -441.517)"/></g><g transform="translate(51.411 36.411)"><path class="a" d="M227.276,207.073a9.25,9.25,0,0,1-5.791-2.047,1.348,1.348,0,1,1,1.693-2.1,6.519,6.519,0,0,0,8.2,0,1.348,1.348,0,0,1,1.693,2.1,9.25,9.25,0,0,1-5.791,2.047Z" transform="translate(-220.984 -202.629)"/></g></g></svg>