<svg xmlns="http://www.w3.org/2000/svg" width="78.463" height="74.927" viewBox="0 0 78.463 74.927"><defs><style>.a{fill:#08813e;}</style></defs><g transform="translate(0 -11.537)"><g transform="translate(13.791 23.816)"><path class="a" d="M154.5,107.774a3.084,3.084,0,0,0-2.685-2.147L127.83,103.4,123.075,92.36a1.149,1.149,0,0,0-2.111.909l5.025,11.669a1.149,1.149,0,0,0,.95.69l24.668,2.288a.827.827,0,0,1,.47,1.446l-18.612,16.351a1.149,1.149,0,0,0-.363,1.116L138.549,151a.828.828,0,0,1-1.23.894l-21.3-12.649a1.15,1.15,0,0,0-1.173,0l-21.3,12.649a.828.828,0,0,1-1.23-.893l2.812-12.475a1.149,1.149,0,0,0-2.242-.505L90.07,150.491a3.126,3.126,0,0,0,4.646,3.375l20.715-12.3,20.715,12.3a3.084,3.084,0,0,0,3.433-.159,3.084,3.084,0,0,0,1.212-3.216l-5.3-23.5,18.1-15.9A3.084,3.084,0,0,0,154.5,107.774Z" transform="translate(-89.99 -91.665)"/></g><g transform="translate(0 11.537)"><g transform="translate(0 0)"><path class="a" d="M44.764,19.607,42.1,13.427a3.126,3.126,0,0,0-5.742,0L26.831,35.554,2.843,37.778A3.126,3.126,0,0,0,1.068,43.24l18.1,15.9L17.79,65.253a1.149,1.149,0,1,0,2.242.505l1.528-6.779a1.149,1.149,0,0,0-.363-1.116L2.585,41.513a.828.828,0,0,1,.47-1.446l24.668-2.288a1.149,1.149,0,0,0,.95-.69l9.8-22.754a.827.827,0,0,1,1.52,0l2.661,6.18a1.149,1.149,0,1,0,2.111-.909Z" transform="translate(0 -11.537)"/></g></g></g></svg>