<svg xmlns="http://www.w3.org/2000/svg" width="73.42" height="88" viewBox="0 0 73.42 88"><defs><style>.a{fill:#08813e;}</style></defs><path class="a" d="M72.119,77.673a1.3,1.3,0,0,0,1.3-1.3v-.814A15.23,15.23,0,0,0,62.3,60.923L48.043,56.963,44.261,53.18V47.591a17.687,17.687,0,0,0,9.63-12.01h1.738A4.779,4.779,0,0,0,60.4,30.808v-2.43a4.76,4.76,0,0,0-1.562-3.528V2.6h5.9V15.3a4.426,4.426,0,0,0,0,8.461v3.233a1.3,1.3,0,1,0,2.6,0V23.757a4.426,4.426,0,0,0,0-8.461V2.6h1.3a1.3,1.3,0,0,0,0-2.6H4.773a1.3,1.3,0,0,0,0,2.6H14.58V5.214a1.3,1.3,0,0,0,2.6,0V2.6H56.237V17.877H17.184V11.292a1.3,1.3,0,0,0-2.6,0V24.85a4.762,4.762,0,0,0-1.562,3.529v2.43a4.779,4.779,0,0,0,4.774,4.774H19.53a17.685,17.685,0,0,0,9.63,12.01V53.18l-3.783,3.783-14.254,3.96A15.23,15.23,0,0,0,0,75.557v.814a1.3,1.3,0,0,0,2.6,0v-.814A12.618,12.618,0,0,1,11.82,63.432L20.4,61.048l4.824,15.281a1.31,1.31,0,0,0,.3.506L33.674,85.4H15.8V81.317a1.3,1.3,0,1,0-2.6,0V85.4H2.6V82.435a1.3,1.3,0,0,0-2.6,0V86.7A1.3,1.3,0,0,0,1.3,88H72.119a1.3,1.3,0,0,0,1.3-1.3V82.435a1.3,1.3,0,0,0-2.6,0V85.4H60.229V81.317a1.3,1.3,0,1,0-2.6,0V85.4H39.746l8.148-8.562a1.305,1.305,0,0,0,.3-.506l4.824-15.281L61.6,63.432a12.617,12.617,0,0,1,9.215,12.124v.814a1.3,1.3,0,0,0,1.3,1.3ZM66.044,21.349a1.823,1.823,0,1,1,1.822-1.823A1.825,1.825,0,0,1,66.044,21.349ZM34.48,71.858h4.461l1.754,8.766L36.71,84.809l-3.984-4.186Zm4.934-2.6H34.007l-2.2-2.54,4.905-4.905,4.9,4.905Zm3.554-4.87-4.416-4.416,4.408-4.407,2.7,2.7ZM57.8,30.808a2.172,2.172,0,0,1-2.17,2.169h-1.3V26.209h1.3a2.172,2.172,0,0,1,2.17,2.17Zm-1.562-7.163a4.777,4.777,0,0,0-.608-.04h-1.3V20.481h1.909ZM17.184,20.481h1.909v3.125h-1.3a4.777,4.777,0,0,0-.608.04Zm1.909,12.5h-1.3a2.172,2.172,0,0,1-2.17-2.17v-2.43a2.172,2.172,0,0,1,2.17-2.17h1.3Zm2.6-1.3v-11.2H51.724v11.2a15.014,15.014,0,0,1-30.027,0ZM36.71,49.294a17.574,17.574,0,0,0,4.947-.708V53.18L36.71,58.127,31.763,53.18V48.585A17.55,17.55,0,0,0,36.71,49.294ZM30.462,55.56l4.408,4.408-4.416,4.416-2.694-6.122Zm-7.547,4.789,2.6-.722,3.317,7.539a1.318,1.318,0,0,0,.072.14c.007.012.015.023.022.036.018.029.038.057.058.085s.022.029.034.043.017.022.026.033l2.966,3.423-1.478,7.391-2.912-3.06ZM45.8,75.257l-2.912,3.06L41.41,70.926,44.376,67.5c.009-.011.017-.022.026-.033l.034-.044c.02-.028.04-.056.058-.085.007-.012.015-.023.023-.036a1.436,1.436,0,0,0,.071-.14l3.317-7.539,2.6.722Zm0,0" transform="translate(0 0)"/></svg>