<svg xmlns="http://www.w3.org/2000/svg" width="71.303" height="100.592" viewBox="0 0 71.303 100.592"><defs><style>.a{fill:#08813e;}</style></defs><g transform="translate(-72.296)"><g transform="translate(72.296)"><path class="a" d="M138.737,66.441V55.969l-4.419,1.719-.013-.029-.105-.191a11.375,11.375,0,0,0-7.516-5.03L116.05,50.5v-.839a16.234,16.234,0,0,0,7.8-10.906,6.493,6.493,0,0,0,5.168-6.348V16.4a10.162,10.162,0,0,0-7.26-9.751l-.81-.81a19.954,19.954,0,0,0-34.063,14.11V32.41a6.493,6.493,0,0,0,5.168,6.348,16.235,16.235,0,0,0,7.8,10.906V50.5L89.213,52.437A11.379,11.379,0,0,0,81.7,57.462l-.1.237-4.445-1.729V66.441A4.867,4.867,0,0,0,72.3,71.3v6.482a4.867,4.867,0,0,0,4.862,4.862v5.97l30.79,11.976,30.79-11.976v-5.97a4.867,4.867,0,0,0,4.862-4.862V71.3A4.867,4.867,0,0,0,138.737,66.441Zm-19.65-12.091,7.017,1.275a8.118,8.118,0,0,1,5.116,3.267l-15.678,6.1Zm-15.863-3.2a16.144,16.144,0,0,0,9.448,0l-4.724,3.542Zm2.257,5.743L102.173,60.2l-2.146-6.435,1.032-.186Zm9.354-3.314,1.032.186L113.721,60.2l-3.307-3.306ZM124.153,35.2V29.62a3.213,3.213,0,0,1,0,5.581Zm-32.41,0a3.213,3.213,0,0,1,0-5.581Zm0-10.893v1.851a6.428,6.428,0,0,0-1.621.671V19.953A16.713,16.713,0,0,1,118.652,8.137l1.429,1.431.436.107a6.926,6.926,0,0,1,5.255,6.73V26.829a6.369,6.369,0,0,0-1.621-.671V24.308h-5.139A14.1,14.1,0,0,1,107.792,18.7L106.5,16.978l-3.22,3.222a13.942,13.942,0,0,1-9.921,4.108Zm3.241,11.344V27.474a17.152,17.152,0,0,0,10.592-4.983l.63-.63a17.359,17.359,0,0,0,12.809,5.688h1.9v8.1a12.964,12.964,0,0,1-25.928,0ZM89.791,55.626l7.017-1.275,3.546,10.639-15.682-6.1A8.117,8.117,0,0,1,89.791,55.626ZM75.537,77.785V71.3a1.622,1.622,0,0,1,1.621-1.621,4.862,4.862,0,1,1,0,9.723A1.622,1.622,0,0,1,75.537,77.785Zm30.79,18.7L80.4,86.4V81.959a8.086,8.086,0,0,0,0-14.831v-6.42l25.928,10.083Zm-4.811-31.039,6.432-6.433,6.432,6.432-6.432,2.5ZM135.5,86.4,109.568,96.481V70.791L135.5,60.708v6.42a8.086,8.086,0,0,0,0,14.831Zm4.862-8.615a1.622,1.622,0,0,1-1.621,1.621,4.862,4.862,0,0,1,0-9.723,1.622,1.622,0,0,1,1.621,1.621Z" transform="translate(-72.296)"/></g></g></svg>