<svg xmlns="http://www.w3.org/2000/svg" width="37.832" height="32.274" viewBox="0 0 37.832 32.274"><defs><style>.a{fill:#08813e;stroke:#08813e;stroke-width:0.5px;}</style></defs><g transform="translate(0.25 -37.863)"><path class="a" d="M28.035,38.113H9.3a9.307,9.307,0,0,0-9.3,9.3v3.281a.547.547,0,0,0,.547.547H8.655A1.646,1.646,0,0,1,8.093,52L5.906,53.644a3.846,3.846,0,0,0-1.531,3.062V67.153a2.737,2.737,0,0,0,2.734,2.734H30.223a2.737,2.737,0,0,0,2.734-2.734V56.706a3.846,3.846,0,0,0-1.531-3.062L29.238,52a1.647,1.647,0,0,1-.561-.766h8.108a.547.547,0,0,0,.547-.547V47.409A9.307,9.307,0,0,0,28.035,38.113ZM9.3,39.207H28.035a8.213,8.213,0,0,1,8.184,7.656H28.582v-.547a2.739,2.739,0,0,0-2.187-2.679v-1.7a1.64,1.64,0,0,0-3.187-.547H14.124a1.64,1.64,0,0,0-3.187.547v1.7A2.739,2.739,0,0,0,8.75,46.316v.547H1.112A8.213,8.213,0,0,1,9.3,39.207Zm4.922,3.281h8.9v1.094h-8.9ZM1.094,47.956H8.75v2.187H1.094ZM30.77,54.519a2.747,2.747,0,0,1,1.094,2.187v4.978a1.642,1.642,0,0,1-1.641,1.641H9.3a.547.547,0,1,0,0,1.094H30.223a2.72,2.72,0,0,0,1.641-.548v3.283a1.642,1.642,0,0,1-1.641,1.641H7.109a1.642,1.642,0,0,1-1.641-1.641V63.87a2.72,2.72,0,0,0,1.641.548.547.547,0,1,0,0-1.094,1.642,1.642,0,0,1-1.641-1.641V56.706a2.747,2.747,0,0,1,1.094-2.187L8.75,52.878a2.747,2.747,0,0,0,1.094-2.187V46.316a1.642,1.642,0,0,1,1.641-1.641.547.547,0,0,0,.547-.547V41.941a.547.547,0,0,1,1.094,0v2.187a.547.547,0,0,0,.547.547H23.66a.547.547,0,0,0,.547-.547V41.941a.547.547,0,0,1,1.094,0v2.187a.547.547,0,0,0,.547.547,1.642,1.642,0,0,1,1.641,1.641v4.375a2.747,2.747,0,0,0,1.094,2.187Zm-2.187-4.375V47.956h7.656v2.187Z"/><path class="a" d="M151.7,143.113a8.2,8.2,0,1,0,8.2,8.2A8.212,8.212,0,0,0,151.7,143.113Zm0,15.312a7.109,7.109,0,1,1,7.109-7.109A7.117,7.117,0,0,1,151.7,158.425Z" transform="translate(-133.037 -97.344)"/><path class="a" d="M207.328,203.113a3.828,3.828,0,1,0,3.828,3.828A3.832,3.832,0,0,0,207.328,203.113Zm0,6.562a2.734,2.734,0,1,1,2.734-2.734A2.737,2.737,0,0,1,207.328,209.675Z" transform="translate(-188.662 -152.969)"/><path class="a" d="M179.515,173.113a6.015,6.015,0,1,0,6.015,6.015A6.022,6.022,0,0,0,179.515,173.113Zm0,10.937a4.922,4.922,0,1,1,4.922-4.922A4.927,4.927,0,0,1,179.515,184.05Z" transform="translate(-160.85 -125.157)"/></g></svg>